{"glyphs":{"0":{"ha":917,"x_min":0,"x_max":0,"o":"m 458 -14 b 56 521 218 -14 56 218 b 458 1056 56 824 232 1056 b 861 521 685 1056 861 824 b 458 -14 861 218 699 -14 m 458 1044 b 299 521 328 1044 299 808 b 458 -3 299 233 314 -3 b 618 521 603 -3 618 233 b 458 1044 618 808 596 1044 "},"1":{"ha":688,"x_min":0,"x_max":0,"o":"m 250 13 l 250 1029 l 93 1029 l 93 1042 l 465 1042 l 465 13 l 618 13 l 618 0 l 69 0 l 69 13 "},"2":{"ha":833,"x_min":0,"x_max":0,"o":"m 56 0 l 56 139 l 350 378 b 533 736 469 475 533 585 b 332 1017 533 908 461 1017 b 86 764 193 1017 86 906 b 203 850 103 811 146 850 b 331 731 275 850 331 800 b 194 603 331 654 264 603 b 69 763 125 603 69 656 b 417 1056 69 925 199 1056 b 756 792 633 1056 756 938 b 504 478 756 632 607 556 l 179 208 l 772 208 l 772 313 l 785 313 l 785 0 "},"3":{"ha":793,"x_min":0,"x_max":0,"o":"m 738 285 b 356 -14 738 97 565 -14 b 35 224 138 -14 35 110 b 156 353 35 301 86 353 b 267 236 218 353 267 307 b 149 125 267 171 210 125 b 67 167 107 125 81 144 b 322 8 86 92 171 8 b 514 285 474 8 514 133 b 275 557 514 408 475 557 l 275 569 b 472 821 461 569 472 725 b 336 1033 472 931 432 1033 b 124 917 240 1033 151 979 b 197 950 140 942 169 950 b 304 842 251 950 304 908 b 190 726 304 769 246 726 b 76 840 128 726 76 765 b 363 1054 76 961 221 1054 b 696 814 544 1054 696 967 b 371 564 696 689 626 583 b 738 285 644 543 738 429 "},"4":{"ha":889,"x_min":0,"x_max":0,"o":"m 826 0 l 375 0 l 375 13 l 507 13 l 507 292 l 49 292 l 563 1042 l 722 1042 l 722 306 l 875 306 l 875 292 l 722 292 l 722 13 l 826 13 m 507 306 l 507 939 l 72 306 "},"5":{"ha":743,"x_min":0,"x_max":0,"o":"m 56 124 b 269 3 74 64 167 3 b 472 308 421 3 472 150 b 303 610 472 494 419 610 b 97 496 203 610 125 551 l 79 496 l 79 1042 l 640 1042 l 640 1118 l 653 1118 l 653 833 l 92 833 l 92 507 b 350 632 125 569 211 632 b 701 308 560 632 701 517 b 300 -14 701 121 531 -14 b 14 193 151 -14 14 65 b 135 321 14 271 68 321 b 256 206 197 321 256 282 b 131 83 256 136 196 83 b 56 124 96 83 69 101 "},"6":{"ha":847,"x_min":0,"x_max":0,"o":"m 806 347 b 443 -14 806 139 667 -14 b 69 431 219 -14 69 139 b 701 1056 69 768 336 1056 l 701 1044 b 301 538 469 1044 319 799 b 481 683 321 629 368 683 b 806 347 635 683 806 583 m 576 347 b 438 657 576 568 526 657 b 299 389 340 657 299 569 b 447 -1 299 168 338 -1 b 576 347 557 -1 576 154 "},"7":{"ha":750,"x_min":0,"x_max":0,"o":"m 206 126 b 428 518 206 236 333 368 b 599 826 475 599 533 706 l 68 826 l 68 722 l 56 722 l 56 1042 l 736 1042 b 451 525 736 1042 560 708 b 361 326 382 407 361 376 b 469 115 361 239 469 218 b 339 -14 469 43 421 -14 b 206 126 264 -14 206 28 "},"8":{"ha":833,"x_min":0,"x_max":0,"o":"m 56 264 b 335 536 56 411 146 514 b 83 778 171 557 83 646 b 417 1056 83 931 200 1056 b 750 778 633 1056 750 931 b 499 536 750 646 663 557 b 778 264 688 514 778 411 b 417 -14 778 97 661 -14 b 56 264 172 -14 56 97 m 306 778 b 417 544 306 626 335 544 b 528 778 499 544 528 626 b 417 1036 528 922 499 1036 b 306 778 335 1036 306 922 m 278 264 b 417 6 278 119 314 6 b 556 264 519 6 556 119 b 417 525 556 408 519 525 b 278 264 314 525 278 408 "},"9":{"ha":847,"x_min":0,"x_max":0,"o":"m 778 611 b 146 -14 778 274 511 -14 l 146 -3 b 546 504 378 -3 528 243 b 367 358 526 413 479 358 b 42 694 213 358 42 458 b 404 1056 42 903 181 1056 b 778 611 628 1056 778 903 m 271 694 b 410 385 271 474 321 385 b 549 653 507 385 549 472 b 400 1043 549 874 510 1043 b 271 694 290 1043 271 888 "}," ":{"ha":347,"x_min":0,"x_max":0,"o":""},"!":{"ha":528,"x_min":0,"x_max":0,"o":"m 386 888 b 269 358 371 685 269 532 l 256 358 b 139 888 256 532 154 685 l 139 914 b 263 1053 139 992 176 1053 b 388 914 349 1053 388 992 b 386 888 388 906 386 897 m 139 111 b 264 236 139 181 194 236 b 389 111 333 236 389 181 b 264 -14 389 42 333 -14 b 139 111 194 -14 139 42 "},"'":{"ha":361,"x_min":0,"x_max":0,"o":"m 290 918 b 188 629 275 814 188 782 l 174 629 b 71 918 174 782 86 814 b 69 943 69 928 69 935 b 181 1056 69 1011 119 1056 b 292 943 242 1056 292 1011 b 290 918 292 935 292 928 "},"\"":{"ha":667,"x_min":0,"x_max":0,"o":"m 596 918 b 493 629 581 814 493 782 l 479 629 b 376 918 479 782 392 814 b 375 943 375 928 375 935 b 486 1056 375 1011 425 1056 b 597 943 547 1056 597 1011 b 596 918 597 935 597 928 m 290 918 b 188 629 275 814 188 782 l 174 629 b 71 918 174 782 86 814 b 69 943 69 928 69 935 b 181 1056 69 1011 119 1056 b 292 943 242 1056 292 1011 b 290 918 292 935 292 928 "},"#":{"ha":875,"x_min":0,"x_max":0,"o":"m 268 356 l 315 707 l 83 707 l 83 719 l 317 719 l 360 1049 l 372 1049 l 329 719 l 585 719 l 628 1047 l 640 1049 l 597 719 l 833 719 l 833 707 l 596 707 l 549 356 l 792 356 l 792 343 l 547 343 l 501 -7 l 489 -8 l 535 343 l 279 343 l 233 -7 l 221 -7 l 267 343 l 42 343 l 42 356 m 536 356 l 583 707 l 328 707 l 281 356 "},"$":{"ha":826,"x_min":0,"x_max":0,"o":"m 700 883 b 456 1039 676 964 576 1031 l 456 664 b 771 306 606 599 771 524 b 456 -19 771 125 647 -3 l 456 -111 l 442 -111 l 442 -19 b 413 -21 432 -21 422 -21 b 347 -18 390 -21 368 -19 l 347 -111 l 331 -111 l 331 -15 b 39 215 132 8 39 124 b 160 350 39 293 85 350 b 269 231 215 350 269 306 b 151 126 269 161 206 126 b 64 175 110 126 78 149 b 331 -1 88 107 165 18 l 331 444 b 76 771 200 501 76 579 b 331 1046 76 915 194 1015 l 331 1153 l 347 1153 l 347 1049 b 417 1056 371 1053 393 1056 b 442 1054 425 1056 433 1056 l 442 1153 l 456 1153 l 456 1054 b 729 840 601 1040 729 957 b 611 713 729 763 686 713 b 501 822 556 713 501 750 b 611 929 501 889 557 929 b 700 883 647 929 681 911 m 428 1040 b 347 1029 399 1040 372 1036 l 347 714 b 442 669 376 699 408 685 l 442 1040 b 428 1040 438 1040 432 1040 m 222 872 b 331 722 222 803 267 758 l 331 1022 b 222 872 264 996 222 942 m 403 -6 b 442 -4 417 -6 429 -4 l 442 396 b 347 436 411 410 379 422 l 347 -3 b 403 -6 365 -4 383 -6 m 625 197 b 456 390 625 297 550 347 l 456 -1 b 625 197 568 15 625 92 "},"%":{"ha":1417,"x_min":0,"x_max":0,"o":"m 49 750 b 354 1056 49 949 197 1056 b 660 750 511 1056 660 949 b 354 444 660 551 483 444 b 49 750 197 444 49 551 m 264 750 b 354 457 264 565 286 457 b 444 750 422 457 444 565 b 354 1043 444 935 422 1043 b 264 750 286 1043 264 935 m 1076 1042 l 356 0 l 340 0 l 1061 1042 m 757 292 b 1063 597 757 490 906 597 b 1368 292 1219 597 1368 490 b 1063 -14 1368 93 1192 -14 b 757 292 906 -14 757 93 m 972 292 b 1063 -1 972 107 994 -1 b 1153 292 1131 -1 1153 107 b 1063 585 1153 476 1131 585 b 972 292 994 585 972 476 "},"&":{"ha":1196,"x_min":0,"x_max":0,"o":"m 1144 639 l 1144 626 l 1006 626 b 849 221 990 485 938 338 l 986 13 l 1158 13 l 1158 0 l 750 0 l 699 76 b 394 -14 614 19 513 -14 b 56 250 175 -14 56 93 b 375 556 56 422 233 492 l 290 681 b 226 851 254 733 226 803 b 554 1056 226 976 358 1056 b 854 881 738 1056 854 988 b 571 646 854 746 722 715 l 842 232 b 994 626 922 340 979 482 l 811 626 l 811 639 m 563 658 b 647 882 615 696 647 747 b 550 1046 647 961 628 1046 b 446 910 475 1046 446 976 b 547 681 446 854 488 769 m 288 322 b 515 36 288 169 385 36 b 690 89 576 36 635 56 l 385 540 b 288 322 325 500 288 449 "},"(":{"ha":517,"x_min":0,"x_max":0,"o":"m 490 -236 b 90 451 264 -139 90 128 b 490 1111 90 775 264 1014 l 496 1100 b 306 451 358 1010 306 718 b 496 -225 306 185 358 -135 "},")":{"ha":517,"x_min":0,"x_max":0,"o":"m 26 1111 b 426 424 253 1014 426 747 b 26 -236 426 100 253 -139 l 21 -225 b 211 424 158 -135 211 157 b 21 1100 211 690 158 1010 "},"*":{"ha":882,"x_min":0,"x_max":0,"o":"m 331 385 b 433 661 346 486 429 519 b 244 435 311 586 325 497 b 224 421 236 428 231 425 b 71 461 165 386 101 407 b 113 613 40 514 54 579 b 135 624 119 617 125 621 b 426 674 231 663 300 607 b 136 724 301 740 231 686 b 114 735 126 726 121 731 b 72 888 56 768 42 833 b 225 926 103 940 167 961 b 246 913 232 922 238 919 b 435 686 326 850 313 761 b 332 963 429 828 347 861 b 331 988 331 972 331 979 b 442 1100 331 1056 381 1100 b 553 988 503 1100 553 1056 b 551 963 553 979 553 972 b 449 686 536 861 454 828 b 636 913 568 761 556 850 b 657 926 644 919 650 922 b 810 886 715 961 779 940 b 768 735 840 833 826 768 b 746 724 761 731 756 726 b 456 674 650 685 581 740 b 746 624 581 607 650 663 b 768 613 756 621 761 617 b 810 460 826 579 840 514 b 657 421 779 407 715 386 b 636 435 650 425 644 428 b 447 661 556 497 569 586 b 550 385 453 519 535 486 b 551 360 551 375 551 368 b 440 247 551 292 501 247 b 329 360 379 247 329 292 b 331 385 329 368 329 375 "},"+":{"ha":736,"x_min":0,"x_max":0,"o":"m 361 432 l 83 432 l 83 446 l 361 446 l 361 722 l 375 722 l 375 446 l 653 446 l 653 432 l 375 432 l 375 153 l 361 153 "},",":{"ha":382,"x_min":0,"x_max":0,"o":"m 56 110 b 190 233 56 176 117 233 b 329 47 265 233 329 169 b 53 -214 329 -92 219 -214 l 53 -200 b 311 97 206 -200 335 -89 b 178 -14 296 38 244 -14 b 56 110 103 -14 56 43 "},"-":{"ha":500,"x_min":0,"x_max":0,"o":"m 417 389 l 417 375 l 83 375 l 83 389 "},".":{"ha":361,"x_min":0,"x_max":0,"o":"m 56 111 b 181 236 56 181 111 236 b 306 111 250 236 306 181 b 181 -14 306 42 250 -14 b 56 111 111 -14 56 42 "},"/":{"ha":722,"x_min":0,"x_max":0,"o":"m 667 1083 l 68 -208 l 56 -208 l 654 1083 "},":":{"ha":360,"x_min":0,"x_max":0,"o":"m 56 625 b 181 750 56 694 111 750 b 306 625 250 750 306 694 b 181 500 306 556 250 500 b 56 625 111 500 56 556 m 56 111 b 181 236 56 181 111 236 b 306 111 250 236 306 181 b 181 -14 306 42 250 -14 b 56 111 111 -14 56 42 "},";":{"ha":385,"x_min":0,"x_max":0,"o":"m 57 625 b 182 750 57 694 113 750 b 307 625 251 750 307 694 b 182 500 307 556 251 500 b 57 625 113 500 57 556 m 57 110 b 192 233 57 176 118 233 b 331 47 267 233 331 169 b 54 -214 331 -92 221 -214 l 54 -200 b 313 97 207 -200 336 -89 b 179 -14 297 38 246 -14 b 57 110 104 -14 57 43 "},"<":{"ha":778,"x_min":0,"x_max":0,"o":"m 83 546 l 694 833 l 694 821 l 93 539 l 694 256 l 694 243 l 83 531 "},"=":{"ha":778,"x_min":0,"x_max":0,"o":"m 694 715 l 694 701 l 83 701 l 83 715 m 694 507 l 694 493 l 83 493 l 83 507 "},">":{"ha":778,"x_min":0,"x_max":0,"o":"m 694 531 l 83 243 l 83 256 l 685 539 l 83 821 l 83 833 l 694 546 "},"?":{"ha":813,"x_min":0,"x_max":0,"o":"m 343 497 b 519 778 471 536 519 649 b 361 1036 519 908 499 1036 b 111 861 231 1036 125 933 b 196 903 118 876 150 903 b 311 799 257 903 311 865 b 197 686 311 726 260 686 b 83 807 128 686 83 732 b 397 1056 83 928 214 1056 b 743 778 607 1056 743 944 b 357 489 743 618 588 501 l 357 339 l 343 339 l 343 497 m 249 111 b 374 236 249 181 304 236 b 499 111 443 236 499 181 b 374 -14 499 42 443 -14 b 249 111 304 -14 249 42 "},"@":{"ha":1403,"x_min":0,"x_max":0,"o":"m 811 496 b 810 461 811 485 811 472 l 871 722 l 1079 722 l 978 286 b 1010 125 968 243 926 125 b 1314 557 1171 125 1314 326 b 811 1085 1314 806 1157 1085 b 89 293 414 1085 89 721 b 582 -285 89 -133 335 -285 b 1081 -81 808 -285 961 -217 l 1090 -89 b 582 -297 974 -225 808 -297 b 76 293 328 -297 76 -143 b 813 1097 76 728 406 1097 b 1326 557 1164 1097 1326 811 b 939 94 1326 328 1197 94 b 767 264 790 94 757 183 b 550 97 722 164 647 97 b 339 319 431 97 339 175 b 664 735 339 528 492 735 b 811 496 788 735 811 610 m 800 481 b 725 681 800 539 794 681 b 563 325 650 681 563 497 b 636 153 563 232 583 153 b 800 481 711 153 800 307 "},"A":{"ha":1086,"x_min":0,"x_max":0,"o":"m 151 13 l 521 1063 l 600 1063 l 965 13 l 1067 13 l 1067 0 l 594 0 l 594 13 l 715 13 l 611 333 l 278 333 l 165 13 l 331 13 l 331 0 l 25 0 l 25 13 m 282 347 l 607 347 l 450 828 "},"B":{"ha":968,"x_min":0,"x_max":0,"o":"m 25 0 l 25 13 l 150 13 l 150 1029 l 25 1029 l 25 1042 l 497 1042 b 872 785 728 1042 872 965 b 599 536 872 638 778 557 b 914 278 779 521 914 450 b 525 0 914 76 769 0 m 364 1029 l 364 542 l 469 542 b 650 771 568 542 650 606 b 469 1029 650 936 568 1029 m 364 528 l 364 13 l 483 13 b 678 292 596 13 678 126 b 483 528 678 457 596 528 "},"C":{"ha":975,"x_min":0,"x_max":0,"o":"m 919 0 l 911 0 l 799 78 b 558 -14 738 19 658 -14 b 58 521 249 -14 58 211 b 558 1056 58 831 249 1056 b 775 969 644 1056 718 1024 l 897 1042 l 906 1042 l 906 736 l 893 736 b 572 1036 840 911 725 1036 b 303 521 365 1036 303 774 b 572 6 303 268 365 6 b 907 306 758 6 858 142 l 919 306 "},"D":{"ha":1051,"x_min":0,"x_max":0,"o":"m 25 0 l 25 13 l 150 13 l 150 1029 l 25 1029 l 25 1042 l 469 1042 b 997 521 800 1042 997 831 b 469 0 997 211 786 0 m 364 1029 l 364 13 l 469 13 b 753 521 683 13 753 247 b 469 1029 753 794 669 1029 "},"E":{"ha":871,"x_min":0,"x_max":0,"o":"m 589 365 b 414 532 568 458 493 532 l 364 532 l 364 13 l 511 13 b 817 313 701 13 796 136 l 831 313 l 831 0 l 25 0 l 25 13 l 150 13 l 150 1029 l 25 1029 l 25 1042 l 817 1042 l 817 757 l 803 757 b 525 1029 782 906 688 1029 l 364 1029 l 364 546 l 414 546 b 589 706 493 546 568 613 l 600 706 l 600 365 l 589 365 "},"F":{"ha":836,"x_min":0,"x_max":0,"o":"m 150 13 l 150 1029 l 25 1029 l 25 1042 l 794 1042 l 794 757 l 783 757 b 525 1029 763 906 681 1029 l 364 1029 l 364 525 l 400 525 b 589 685 507 525 568 592 l 600 685 l 600 344 l 589 344 b 400 511 568 438 507 511 l 364 511 l 364 13 l 503 13 l 503 0 l 25 0 l 25 13 "},"G":{"ha":1051,"x_min":0,"x_max":0,"o":"m 1039 403 l 1039 389 l 969 389 l 969 215 b 553 -14 879 121 779 -14 b 58 521 243 -14 58 197 b 572 1056 58 844 290 1056 b 792 976 653 1056 729 1025 l 925 1042 l 933 1042 l 933 736 l 922 736 b 592 1036 892 883 756 1036 b 303 521 385 1036 303 774 b 553 1 303 268 353 1 b 739 174 669 1 718 115 l 739 389 l 594 389 l 594 403 "},"H":{"ha":1100,"x_min":0,"x_max":0,"o":"m 150 13 l 150 1029 l 25 1029 l 25 1042 l 489 1042 l 489 1029 l 364 1029 l 364 521 l 739 521 l 739 1029 l 614 1029 l 614 1042 l 1081 1042 l 1081 1029 l 956 1029 l 956 13 l 1081 13 l 1081 0 l 614 0 l 614 13 l 739 13 l 739 507 l 364 507 l 364 13 l 489 13 l 489 0 l 25 0 l 25 13 "},"I":{"ha":579,"x_min":0,"x_max":0,"o":"m 178 13 l 178 1029 l 25 1029 l 25 1042 l 558 1042 l 558 1029 l 392 1029 l 392 13 l 558 13 l 558 0 l 25 0 l 25 13 "},"J":{"ha":740,"x_min":0,"x_max":0,"o":"m 719 1042 l 719 1029 l 581 1029 l 581 236 b 247 -42 525 104 450 -42 b 17 146 106 -42 17 42 b 144 278 17 225 75 278 b 264 154 207 278 264 232 b 144 31 264 85 211 31 b 69 53 111 31 81 42 b 243 -28 97 11 158 -28 b 367 264 346 -28 367 69 l 367 1029 l 186 1029 l 186 1042 "},"K":{"ha":1065,"x_min":0,"x_max":0,"o":"m 150 13 l 150 1029 l 25 1029 l 25 1042 l 503 1042 l 503 1029 l 364 1029 l 364 493 l 822 1029 l 664 1029 l 664 1042 l 997 1042 l 997 1029 l 842 1029 l 547 683 l 943 13 l 1058 13 l 1058 0 l 558 0 l 558 13 l 693 13 l 406 519 l 364 471 l 364 13 l 489 13 l 489 0 l 25 0 l 25 13 "},"L":{"ha":854,"x_min":0,"x_max":0,"o":"m 25 0 l 25 13 l 150 13 l 150 1029 l 25 1029 l 25 1042 l 489 1042 l 489 1029 l 364 1029 l 364 13 l 507 13 b 814 313 711 13 793 136 l 826 313 l 826 0 "},"M":{"ha":1225,"x_min":0,"x_max":0,"o":"m 131 13 l 131 1029 l 25 1029 l 25 1042 l 350 1042 l 625 297 l 886 1042 l 1206 1042 l 1206 1029 l 1108 1029 l 1108 13 l 1206 13 l 1206 0 l 781 0 l 781 13 l 892 13 l 892 1018 l 533 -14 l 519 -14 l 144 1011 l 144 13 l 247 13 l 247 0 l 31 0 l 31 13 "},"N":{"ha":1043,"x_min":0,"x_max":0,"o":"m 164 13 l 164 1029 l 25 1029 l 25 1042 l 419 1042 l 864 356 l 864 1029 l 706 1029 l 706 1042 l 1022 1042 l 1022 1029 l 878 1029 l 878 -14 l 856 -14 l 178 1021 l 178 13 l 339 13 l 339 0 l 25 0 l 25 13 "},"O":{"ha":1058,"x_min":0,"x_max":0,"o":"m 531 -14 b 58 521 235 -14 58 218 b 531 1056 58 824 249 1056 b 1003 521 813 1056 1003 824 b 531 -14 1003 218 826 -14 m 531 1044 b 303 521 351 1044 303 808 b 531 -3 303 233 338 -3 b 761 521 724 -3 761 233 b 531 1044 761 808 710 1044 "},"P":{"ha":933,"x_min":0,"x_max":0,"o":"m 150 13 l 150 1029 l 25 1029 l 25 1042 l 503 1042 b 886 750 768 1042 886 931 b 503 465 886 569 768 465 l 364 465 l 364 13 l 489 13 l 489 0 l 25 0 l 25 13 m 364 1029 l 364 479 l 475 479 b 650 750 594 479 650 626 b 475 1029 650 874 594 1029 "},"Q":{"ha":1058,"x_min":0,"x_max":0,"o":"m 808 -347 b 406 1 467 -347 407 -271 b 58 521 186 57 58 264 b 531 1056 58 824 249 1056 b 1003 521 813 1056 1003 824 b 650 0 1003 261 874 54 b 808 -335 650 -249 661 -335 m 531 1044 b 303 521 351 1044 303 808 b 531 -3 303 233 338 -3 b 761 521 724 -3 761 233 b 531 1044 761 808 710 1044 "},"R":{"ha":1031,"x_min":0,"x_max":0,"o":"m 164 13 l 164 1029 l 25 1029 l 25 1042 l 511 1042 b 900 785 742 1042 900 965 b 589 535 900 624 786 550 b 939 11 1040 532 768 11 b 1014 29 968 11 994 21 l 1017 17 b 850 -11 994 4 931 -11 b 475 528 471 -11 817 528 l 378 528 l 378 13 l 517 13 l 517 0 l 25 0 l 25 13 m 378 1029 l 378 542 l 475 542 b 678 785 608 542 678 619 b 475 1029 678 950 608 1029 "},"S":{"ha":829,"x_min":0,"x_max":0,"o":"m 58 -14 l 58 313 l 72 313 b 418 -6 124 157 222 -6 b 633 197 551 -6 633 76 b 72 778 633 461 72 375 b 381 1056 72 951 219 1056 b 590 975 465 1056 535 1028 l 708 1056 l 719 1056 l 719 743 l 706 743 b 392 1039 650 926 544 1039 b 219 876 279 1039 219 972 b 775 299 219 640 775 699 b 428 -21 775 104 624 -21 b 192 74 325 -21 250 17 l 69 -14 "},"T":{"ha":940,"x_min":0,"x_max":0,"o":"m 364 13 l 364 1029 l 275 1029 b 36 708 126 1029 57 885 l 25 708 l 25 1042 l 919 1042 l 919 708 l 908 708 b 669 1029 888 885 818 1029 l 581 1029 l 581 13 l 733 13 l 733 0 l 211 0 l 211 13 "},"U":{"ha":1003,"x_min":0,"x_max":0,"o":"m 503 1042 l 503 1029 l 364 1029 l 364 333 b 578 3 364 150 399 3 b 836 319 732 3 836 99 l 836 1029 l 711 1029 l 711 1042 l 983 1042 l 983 1029 l 850 1029 l 850 319 b 525 -21 850 90 751 -21 b 150 319 264 -21 150 79 l 150 1029 l 25 1029 l 25 1042 "},"V":{"ha":1072,"x_min":0,"x_max":0,"o":"m 921 1029 l 753 1029 l 753 1042 l 1058 1042 l 1058 1029 l 938 1029 l 563 -21 l 483 -21 l 118 1029 l 17 1029 l 17 1042 l 517 1042 l 517 1029 l 368 1029 l 633 214 "},"W":{"ha":1531,"x_min":0,"x_max":0,"o":"m 1057 1029 l 926 679 l 1083 239 l 1376 1029 l 1239 1029 l 1239 1042 l 1517 1042 l 1517 1029 l 1390 1029 l 1006 -14 l 956 -14 l 771 494 l 581 -14 l 511 -14 l 132 1029 l 17 1029 l 17 1042 l 1178 1042 l 1178 1029 m 763 517 l 576 1029 l 376 1029 l 658 239 m 918 700 l 1042 1029 l 800 1029 "},"X":{"ha":1100,"x_min":0,"x_max":0,"o":"m 167 13 l 474 476 l 157 1029 l 67 1029 l 67 1042 l 539 1042 l 539 1029 l 401 1029 l 622 649 l 864 1029 l 706 1029 l 706 1042 l 1011 1042 l 1011 1029 l 878 1029 l 629 635 l 990 13 l 1086 13 l 1086 0 l 614 0 l 614 13 l 740 13 l 482 464 l 183 13 l 350 13 l 350 0 l 17 0 l 17 13 "},"Y":{"ha":1024,"x_min":0,"x_max":0,"o":"m 419 13 l 419 500 l 113 1029 l 17 1029 l 17 1042 l 503 1042 l 503 1029 l 363 1029 l 628 550 l 878 1029 l 719 1029 l 719 1042 l 1011 1042 l 1011 1029 l 894 1029 l 636 532 l 636 13 l 775 13 l 775 0 l 294 0 l 294 13 "},"Z":{"ha":857,"x_min":0,"x_max":0,"o":"m 794 1042 l 794 1029 l 261 13 l 517 13 b 797 285 707 13 769 108 l 808 285 l 808 0 l 17 0 l 17 13 l 553 1029 l 336 1029 b 58 785 146 1029 86 933 l 44 785 l 44 1042 "},"[":{"ha":493,"x_min":0,"x_max":0,"o":"m 76 -208 l 76 1083 l 451 1083 l 451 1071 l 285 1071 l 285 -196 l 451 -196 l 451 -208 "},"\\":{"ha":722,"x_min":0,"x_max":0,"o":"m 667 -208 l 651 -208 l 56 1083 l 71 1083 "},"]":{"ha":493,"x_min":0,"x_max":0,"o":"m 208 -196 l 208 1071 l 42 1071 l 42 1083 l 417 1083 l 417 -208 l 42 -208 l 42 -196 "},"^":{"ha":757,"x_min":0,"x_max":0,"o":"m 146 868 l 139 875 l 333 1069 l 424 1069 l 618 875 l 611 868 l 378 1004 "},"_":{"ha":778,"x_min":0,"x_max":0,"o":"m 785 -201 l 785 -215 l -7 -215 l -7 -201 "},"`":{"ha":569,"x_min":0,"x_max":0,"o":"m 167 972 b 76 1049 119 967 76 1001 b 181 1122 76 1096 126 1142 l 490 1014 l 486 1000 l 167 972 "},"a":{"ha":804,"x_min":0,"x_max":0,"o":"m 456 356 l 456 424 b 325 633 456 531 429 633 b 178 588 258 633 201 610 b 324 504 254 613 324 569 b 207 404 324 442 263 404 b 100 501 144 404 100 444 b 361 650 100 590 221 650 b 650 424 590 650 650 550 l 650 72 b 700 21 650 42 667 21 b 793 92 724 21 765 38 l 803 88 b 618 -14 771 18 699 -14 b 456 108 532 -14 456 15 l 456 153 b 239 -14 431 44 361 -14 b 51 157 129 -14 51 54 b 356 356 51 274 154 356 m 340 50 b 456 251 396 50 456 99 l 456 342 l 404 342 b 263 176 319 342 263 267 b 340 50 263 99 289 50 "},"b":{"ha":865,"x_min":0,"x_max":0,"o":"m 24 1029 l 24 1042 l 311 1042 l 311 436 b 528 651 336 575 411 651 b 822 319 679 651 822 528 b 528 -14 822 111 679 -14 b 311 201 411 -14 336 64 l 311 0 l 24 0 l 24 13 l 117 13 l 117 1029 m 311 319 b 482 14 311 117 399 14 b 600 319 564 14 600 119 b 482 625 600 519 564 625 b 311 319 399 625 311 522 "},"c":{"ha":714,"x_min":0,"x_max":0,"o":"m 608 538 b 421 638 588 590 507 638 b 274 319 290 638 274 450 b 425 8 274 161 306 8 b 646 199 536 8 610 86 l 660 199 b 389 -14 624 78 543 -14 b 44 319 186 -14 44 97 b 397 653 44 514 167 653 b 658 464 546 653 658 571 b 549 353 658 393 611 353 b 435 461 493 353 435 381 b 539 567 435 531 492 567 b 608 538 575 567 597 551 "},"d":{"ha":865,"x_min":0,"x_max":0,"o":"m 843 0 l 556 0 l 556 203 b 339 -14 531 64 456 -14 b 44 319 188 -14 44 111 b 339 651 44 528 188 651 b 556 436 456 651 531 575 l 556 1029 l 463 1029 l 463 1042 l 750 1042 l 750 13 l 843 13 m 556 319 b 385 625 556 528 467 625 b 267 319 303 625 267 522 b 388 17 267 117 306 17 b 556 319 469 17 556 111 "},"e":{"ha":726,"x_min":0,"x_max":0,"o":"m 688 199 b 386 -14 651 78 554 -14 b 44 319 190 -14 44 104 b 381 653 44 535 185 653 b 686 356 588 653 686 507 l 260 356 b 260 333 260 349 260 340 b 421 6 260 154 290 6 b 675 199 547 6 640 88 l 688 199 m 381 640 b 260 369 292 640 264 514 l 481 369 b 381 640 481 486 469 640 "},"f":{"ha":539,"x_min":0,"x_max":0,"o":"m 138 13 l 138 626 l 17 626 l 17 639 l 138 639 l 138 711 b 474 1056 138 907 272 1056 b 665 897 593 1056 665 976 b 558 783 665 826 621 783 b 446 886 503 783 446 817 b 554 994 446 953 496 994 b 631 957 589 994 617 979 b 476 1043 615 992 571 1043 b 325 750 365 1043 325 926 l 325 639 l 515 639 l 515 626 l 325 626 l 325 13 l 488 13 l 488 0 l 17 0 l 17 13 "},"g":{"ha":857,"x_min":0,"x_max":0,"o":"m 68 94 b 269 231 68 179 167 218 b 58 438 160 249 58 313 b 342 653 58 590 208 653 b 565 578 422 653 510 629 b 708 646 606 628 661 646 b 842 531 800 646 842 583 b 753 429 842 454 794 429 b 667 517 711 429 667 457 b 750 599 667 563 700 599 b 817 564 781 599 810 582 b 708 633 807 600 771 633 b 575 568 664 633 613 617 b 625 438 606 535 625 492 b 342 225 625 285 475 225 b 303 226 329 225 317 225 b 190 160 249 218 190 197 b 332 117 190 118 256 117 b 451 118 381 117 413 118 b 683 -114 556 118 683 75 b 357 -361 683 -282 544 -361 b 24 -185 193 -361 24 -312 b 207 -37 24 -79 136 -44 b 68 94 128 -21 68 18 m 260 438 b 342 238 260 321 267 238 b 424 438 396 238 424 321 b 342 640 424 554 396 640 b 260 438 288 640 260 554 m 190 -150 b 369 -346 190 -258 250 -346 b 631 -172 494 -346 631 -297 b 454 -47 631 -89 544 -47 l 310 -47 b 236 -43 285 -47 260 -46 b 190 -150 196 -71 190 -122 "},"h":{"ha":850,"x_min":0,"x_max":0,"o":"m 117 13 l 117 1029 l 24 1029 l 24 1042 l 311 1042 l 311 433 b 538 653 331 546 388 653 b 735 443 693 653 735 564 l 735 13 l 828 13 l 828 0 l 468 0 l 468 13 l 540 13 l 540 436 b 467 606 540 553 525 606 b 311 310 347 606 311 442 l 311 13 l 383 13 l 383 0 l 24 0 l 24 13 "},"i":{"ha":431,"x_min":0,"x_max":0,"o":"m 89 938 b 207 1056 89 1004 140 1056 b 325 938 274 1056 325 1004 b 207 819 325 871 274 819 b 89 938 140 819 89 871 m 124 13 l 124 626 l 31 626 l 31 639 l 318 639 l 318 13 l 411 13 l 411 0 l 31 0 l 31 13 "},"j":{"ha":440,"x_min":0,"x_max":0,"o":"m 113 938 b 231 1056 113 1004 164 1056 b 349 938 297 1056 349 1004 b 231 819 349 871 297 819 b 113 938 164 819 113 871 m 339 -17 b 38 -361 339 -199 232 -361 b -175 -197 -89 -361 -175 -289 b -61 -82 -175 -128 -122 -82 b 51 -185 -6 -82 51 -115 b -69 -290 51 -251 3 -290 b -137 -240 -108 -290 -133 -265 b 22 -346 -132 -290 -67 -346 b 142 29 168 -346 142 -147 l 144 626 l 24 626 l 24 639 l 339 639 "},"k":{"ha":876,"x_min":0,"x_max":0,"o":"m 144 13 l 144 1029 l 24 1029 l 24 1042 l 339 1042 l 339 397 l 660 626 l 499 626 l 499 639 l 800 639 l 800 626 l 681 626 l 458 461 l 806 13 l 868 13 l 868 0 l 481 0 l 481 13 l 565 13 l 339 317 l 339 13 l 415 13 l 415 0 l 24 0 l 24 13 "},"l":{"ha":482,"x_min":0,"x_max":0,"o":"m 144 13 l 144 1029 l 24 1029 l 24 1042 l 339 1042 l 339 13 l 460 13 l 460 0 l 24 0 l 24 13 "},"m":{"ha":1218,"x_min":0,"x_max":0,"o":"m 117 13 l 117 626 l 24 626 l 24 639 l 311 639 l 311 440 b 522 653 331 550 382 653 b 707 449 658 653 706 567 b 914 653 725 554 775 653 b 1103 443 1053 653 1103 564 l 1103 13 l 1196 13 l 1196 0 l 839 0 l 839 13 l 908 13 l 908 436 b 842 608 908 553 894 608 b 707 310 739 608 707 449 l 707 13 l 775 13 l 775 0 l 444 0 l 444 13 l 513 13 l 513 436 b 450 608 513 553 503 608 b 311 310 350 608 311 449 l 311 13 l 381 13 l 381 0 l 24 0 l 24 13 "},"n":{"ha":850,"x_min":0,"x_max":0,"o":"m 117 13 l 117 626 l 24 626 l 24 639 l 311 639 l 311 431 b 538 653 331 544 388 653 b 735 443 690 653 735 564 l 735 13 l 828 13 l 828 0 l 468 0 l 468 13 l 540 13 l 540 436 b 467 606 540 553 525 606 b 311 310 350 606 311 442 l 311 13 l 383 13 l 383 0 l 24 0 l 24 13 "},"o":{"ha":765,"x_min":0,"x_max":0,"o":"m 44 319 b 383 653 44 500 174 653 b 722 319 593 653 722 500 b 383 -14 722 139 593 -14 b 44 319 174 -14 44 139 m 253 319 b 383 -1 253 154 281 -1 b 514 319 486 -1 514 154 b 383 640 514 485 486 640 b 253 319 281 640 253 485 "},"p":{"ha":865,"x_min":0,"x_max":0,"o":"m 117 -335 l 117 626 l 24 626 l 24 639 l 311 639 l 311 436 b 528 651 336 575 411 651 b 822 319 679 651 822 528 b 528 -14 822 111 679 -14 b 311 201 411 -14 336 64 l 311 -335 l 404 -335 l 404 -347 l 24 -347 l 24 -335 m 311 319 b 481 14 311 111 400 14 b 600 319 565 14 600 125 b 482 625 600 514 567 625 b 311 319 400 625 311 528 "},"q":{"ha":865,"x_min":0,"x_max":0,"o":"m 843 -347 l 463 -347 l 463 -335 l 556 -335 l 556 203 b 339 -14 531 64 456 -14 b 44 319 188 -14 44 111 b 339 651 44 528 188 651 b 556 436 456 651 531 575 l 556 639 l 843 639 l 843 626 l 750 626 l 750 -335 l 843 -335 m 556 319 b 385 625 556 528 467 625 b 267 319 303 625 267 514 b 385 17 267 125 303 17 b 556 319 472 17 556 111 "},"r":{"ha":656,"x_min":0,"x_max":0,"o":"m 117 13 l 117 626 l 24 626 l 24 639 l 311 639 l 311 461 b 492 653 329 569 375 653 b 647 506 569 653 647 594 b 532 386 647 442 606 386 b 415 497 465 386 415 428 b 603 569 415 594 539 639 b 489 639 586 614 535 639 b 311 310 333 639 311 458 l 311 13 l 404 13 l 404 0 l 24 0 l 24 13 "},"s":{"ha":615,"x_min":0,"x_max":0,"o":"m 53 -14 l 53 201 l 67 201 b 319 0 106 82 200 0 b 475 106 404 0 475 35 b 68 451 475 253 68 179 b 283 651 68 561 151 651 b 443 593 349 651 403 628 l 522 653 l 531 653 l 531 458 l 519 458 b 283 638 489 542 408 638 b 158 546 217 638 158 604 b 579 204 158 407 579 465 b 328 -14 579 60 456 -14 b 143 54 254 -14 192 11 l 64 -14 "},"t":{"ha":499,"x_min":0,"x_max":0,"o":"m 496 142 b 272 -10 463 53 385 -10 b 111 161 138 -10 111 64 l 111 626 l 10 626 l 10 639 l 111 639 l 111 778 b 306 819 174 778 257 792 l 306 639 l 454 639 l 454 626 l 306 626 l 306 125 b 358 31 306 56 321 31 b 485 146 401 31 457 75 l 496 142 "},"u":{"ha":850,"x_min":0,"x_max":0,"o":"m 311 203 b 383 33 311 86 325 33 b 540 329 500 33 540 197 l 540 626 l 450 626 l 450 639 l 735 639 l 735 13 l 828 13 l 828 0 l 540 0 l 540 208 b 314 -14 521 94 464 -14 b 117 196 161 -14 117 75 l 117 626 l 24 626 l 24 639 l 311 639 "},"v":{"ha":788,"x_min":0,"x_max":0,"o":"m 656 626 l 525 626 l 525 639 l 786 639 l 786 626 l 672 626 l 414 -14 l 353 -14 l 89 626 l -3 626 l -3 639 l 408 639 l 408 626 l 304 626 l 471 167 "},"w":{"ha":1136,"x_min":0,"x_max":0,"o":"m 614 653 l 717 653 l 851 208 l 990 626 l 847 626 l 847 639 l 1136 639 l 1136 626 l 1007 626 l 792 -14 l 728 -14 l 554 464 l 361 -14 l 297 -14 l 88 626 l -3 626 l -3 639 l 414 639 l 414 626 l 296 626 l 422 179 "},"x":{"ha":790,"x_min":0,"x_max":0,"o":"m 108 13 l 325 267 l 100 626 l 19 626 l 19 639 l 414 639 l 414 626 l 322 626 l 456 418 l 633 626 l 519 626 l 519 639 l 763 639 l 763 626 l 651 626 l 463 406 l 714 13 l 781 13 l 781 0 l 394 0 l 394 13 l 483 13 l 333 253 l 128 13 l 269 13 l 269 0 l 11 0 l 11 13 "},"y":{"ha":817,"x_min":0,"x_max":0,"o":"m 418 -28 l 82 626 l -8 626 l -8 639 l 444 639 l 444 626 l 313 626 l 525 203 l 721 626 l 583 626 l 583 639 l 833 639 l 833 626 l 739 626 l 324 -267 b 203 -358 297 -322 263 -358 b 94 -254 147 -358 94 -321 b 206 -144 94 -194 140 -144 b 313 -257 265 -144 314 -194 "},"z":{"ha":657,"x_min":0,"x_max":0,"o":"m 282 626 b 68 400 151 626 89 540 l 56 400 l 56 639 l 613 639 l 613 626 l 236 13 l 376 13 b 622 256 539 13 601 83 l 635 256 l 635 0 l 17 0 l 17 13 l 392 626 l 282 626 "},"{":{"ha":461,"x_min":0,"x_max":0,"o":"m 419 -208 b 76 0 156 -208 76 -137 b 160 326 76 176 160 239 b 76 431 160 383 118 417 l 76 444 b 160 550 118 458 160 493 b 76 876 160 638 76 700 b 419 1083 76 1014 156 1083 l 419 1071 b 289 899 333 1071 289 986 b 336 619 289 807 336 744 b 99 439 336 508 268 467 b 336 257 268 410 336 368 b 289 -22 336 132 289 69 b 419 -196 289 -110 333 -196 l 419 -208 "},"|":{"ha":319,"x_min":0,"x_max":0,"o":"m 167 1083 l 167 -347 l 153 -347 l 153 1083 "},"}":{"ha":461,"x_min":0,"x_max":0,"o":"m 42 -196 b 172 -24 128 -196 172 -111 b 125 256 172 68 125 131 b 363 436 125 367 193 408 b 125 618 193 465 125 507 b 172 897 125 743 172 806 b 42 1071 172 985 128 1071 l 42 1083 b 385 875 306 1083 385 1013 b 301 549 385 699 301 636 b 385 444 301 492 343 458 l 385 431 b 301 325 343 417 301 382 b 385 -1 301 238 385 175 b 42 -208 385 -139 306 -208 "},"~":{"ha":956,"x_min":0,"x_max":0,"o":"m 285 586 b 151 476 211 586 151 556 l 139 476 b 346 729 139 636 222 729 b 657 599 499 729 519 599 b 804 708 744 599 804 629 l 817 708 b 610 456 817 549 733 456 b 285 586 433 456 432 586 "},"¡":{"ha":443,"x_min":0,"x_max":0,"o":"m 304 611 b 179 486 304 542 249 486 b 54 611 110 486 54 542 b 179 736 54 681 110 736 b 304 611 249 736 304 681 m 57 -165 b 174 364 72 38 174 190 l 188 364 b 304 -165 188 190 289 38 l 304 -192 b 181 -331 304 -269 267 -331 b 56 -192 94 -331 56 -269 b 57 -165 56 -183 57 -175 "},"¢":{"ha":714,"x_min":0,"x_max":0,"o":"m 608 538 b 421 638 588 590 507 638 b 403 636 414 638 408 638 l 403 10 b 425 8 410 8 417 8 b 646 199 536 8 610 86 l 660 199 b 403 -14 625 82 549 -8 l 403 -118 l 390 -118 l 390 -14 l 389 -14 b 44 319 186 -14 44 97 b 390 653 44 513 164 650 l 390 771 l 403 771 l 403 653 b 658 464 549 651 658 569 b 549 353 658 393 611 353 b 435 461 493 353 435 381 b 539 567 435 531 492 567 b 608 538 575 567 597 551 m 274 319 b 390 14 274 178 299 40 l 390 633 b 274 319 288 607 274 439 "},"£":{"ha":911,"x_min":0,"x_max":0,"o":"m 136 764 b 533 1056 136 958 289 1056 b 878 811 758 1056 878 925 b 761 679 878 733 828 679 b 633 799 699 679 633 722 b 754 917 633 868 693 917 b 840 872 803 917 829 886 b 567 1036 818 947 722 1036 b 374 813 422 1036 374 929 b 443 558 374 703 424 639 l 646 558 l 646 546 l 446 546 b 451 493 450 529 451 513 b 113 -4 451 244 118 236 b 378 218 144 96 251 218 b 654 171 503 218 563 171 b 865 301 750 171 865 188 l 878 301 b 621 -42 878 31 779 -42 b 260 42 431 -42 347 42 b 114 -28 203 42 128 14 l 100 -28 b 249 363 74 165 249 274 b 200 546 249 435 225 490 l 21 546 l 21 558 l 194 558 b 136 764 165 621 136 682 "},"¥":{"ha":1024,"x_min":0,"x_max":0,"o":"m 419 13 l 419 299 l 218 299 l 218 313 l 419 313 l 419 500 l 415 507 l 218 507 l 218 521 l 407 521 l 113 1029 l 17 1029 l 17 1042 l 503 1042 l 503 1029 l 363 1029 l 628 550 l 878 1029 l 719 1029 l 719 1042 l 1011 1042 l 1011 1029 l 894 1029 l 636 532 l 636 521 l 829 521 l 829 507 l 636 507 l 636 313 l 829 313 l 829 299 l 636 299 l 636 13 l 775 13 l 775 0 l 294 0 l 294 13 "},"¦":{"ha":306,"x_min":0,"x_max":0,"o":"m 160 1083 l 160 568 l 146 568 l 146 1083 m 160 231 l 160 -347 l 146 -347 l 146 231 "},"§":{"ha":661,"x_min":0,"x_max":0,"o":"m 606 225 b 318 -14 606 81 492 -14 b 42 182 196 -14 42 35 b 146 296 42 246 83 296 b 242 197 201 296 242 254 b 143 106 242 146 197 106 b 78 133 110 106 85 124 b 318 7 103 50 213 7 b 501 140 447 7 501 81 b 67 486 501 294 67 281 b 178 671 67 578 126 633 b 93 831 128 707 93 757 b 347 1056 93 975 215 1056 b 603 861 463 1056 603 1008 b 497 747 603 797 560 747 b 403 847 442 747 403 790 b 503 942 403 899 449 942 b 565 917 532 942 556 926 b 347 1035 538 992 449 1035 b 188 906 267 1035 188 979 b 608 539 188 751 608 751 b 508 390 608 461 561 424 b 606 225 564 353 606 303 m 178 590 b 486 403 178 490 360 472 b 506 456 497 417 506 433 b 199 657 506 558 321 579 b 178 590 188 639 178 618 "},"©":{"ha":1208,"x_min":0,"x_max":0,"o":"m 69 521 b 604 1056 69 817 308 1056 b 1139 521 900 1056 1139 817 b 604 -14 1139 225 900 -14 b 69 521 308 -14 69 225 m 82 521 b 604 -1 82 233 317 -1 b 1126 521 892 -1 1126 233 b 604 1043 1126 808 892 1043 b 82 521 317 1043 82 808 m 832 208 l 828 208 l 760 254 b 615 200 724 221 675 200 b 315 521 429 200 315 335 b 615 842 315 707 429 842 b 746 790 668 842 711 822 l 819 833 l 824 833 l 824 650 l 817 650 b 624 831 785 756 715 831 b 463 521 500 831 463 672 b 624 211 463 369 500 211 b 825 392 736 211 796 293 l 832 392 "},"ª":{"ha":490,"x_min":0,"x_max":0,"o":"m 476 722 b 365 661 457 681 414 661 b 268 735 314 661 268 679 l 268 761 b 138 661 253 696 211 661 b 25 764 72 661 25 701 b 208 883 25 833 88 883 l 268 883 l 268 924 b 189 1050 268 988 251 1050 b 101 1022 150 1050 115 1035 b 189 972 147 1038 189 1011 b 118 913 189 935 151 913 b 54 971 81 913 54 936 b 211 1060 54 1024 126 1060 b 385 924 349 1060 385 1000 l 385 713 b 414 682 385 694 394 682 b 471 725 429 682 454 692 l 476 722 m 199 700 b 268 821 232 700 268 729 l 268 875 l 238 875 b 151 775 186 875 151 829 b 199 700 151 729 168 700 "},"«":{"ha":1007,"x_min":0,"x_max":0,"o":"m 931 208 l 924 201 l 424 525 l 424 551 l 924 875 l 931 868 l 682 539 m 542 208 l 535 201 l 35 525 l 35 551 l 535 875 l 542 868 l 279 539 "},"¬":{"ha":675,"x_min":0,"x_max":0,"o":"m 83 842 l 83 854 l 592 854 l 592 574 l 579 574 l 579 842 "},"®":{"ha":1208,"x_min":0,"x_max":0,"o":"m 69 521 b 604 1056 69 817 308 1056 b 1139 521 900 1056 1139 817 b 604 -14 1139 225 900 -14 b 69 521 308 -14 69 225 m 82 521 b 604 -1 82 233 317 -1 b 1126 521 892 -1 1126 233 b 604 1043 1126 808 892 1043 b 82 521 317 1043 82 808 m 408 213 l 408 824 l 325 824 l 325 831 l 617 831 b 850 676 754 831 850 785 b 663 526 850 581 781 535 b 874 213 935 525 771 213 b 918 224 890 213 907 218 l 919 215 b 819 199 907 208 868 199 b 594 522 592 199 800 522 l 536 522 l 536 213 l 619 213 l 619 206 l 325 206 l 325 213 m 536 824 l 536 531 l 594 531 b 717 676 675 531 717 578 b 594 824 717 775 675 824 "},"¯":{"ha":558,"x_min":0,"x_max":0,"o":"m 475 667 l 475 653 l 83 653 l 83 667 "},"°":{"ha":444,"x_min":0,"x_max":0,"o":"m 56 944 b 222 1111 56 1036 131 1111 b 389 944 314 1111 389 1036 b 222 778 389 853 314 778 b 56 944 131 778 56 853 m 103 944 b 222 825 103 876 154 825 b 342 944 290 825 342 876 b 222 1064 342 1013 290 1064 b 103 944 154 1064 103 1013 "},"±":{"ha":736,"x_min":0,"x_max":0,"o":"m 361 488 l 83 488 l 83 501 l 361 501 l 361 778 l 375 778 l 375 501 l 653 501 l 653 488 l 375 488 l 375 208 l 361 208 m 653 21 l 653 7 l 83 7 l 83 21 "},"µ":{"ha":819,"x_min":0,"x_max":0,"o":"m 356 -171 b 438 -264 401 -171 438 -211 b 307 -361 438 -318 408 -361 b 126 -168 210 -361 126 -293 l 126 111 b 117 196 119 136 117 165 l 117 626 l 24 626 l 24 639 l 311 639 l 311 203 b 383 33 311 86 325 33 b 540 329 500 33 540 197 l 540 626 l 450 626 l 450 639 l 735 639 l 735 13 l 828 13 l 828 0 l 540 0 l 540 208 b 314 -14 521 94 464 -14 b 139 76 218 -14 165 21 l 139 -168 b 328 -349 139 -287 217 -356 b 272 -253 293 -329 272 -294 b 356 -171 272 -207 310 -171 "},"·":{"ha":360,"x_min":0,"x_max":0,"o":"m 56 597 b 181 722 56 667 111 722 b 306 597 250 722 306 667 b 181 472 306 528 250 472 b 56 597 111 472 56 528 "},"º":{"ha":765,"x_min":0,"x_max":0,"o":"m 185 860 b 389 1060 185 968 263 1060 b 592 860 514 1060 592 968 b 389 660 592 751 514 660 b 185 860 263 660 185 751 m 310 860 b 389 667 310 761 326 667 b 467 860 450 667 467 761 b 389 1053 467 958 450 1053 b 310 860 326 1053 310 958 "},"»":{"ha":1010,"x_min":0,"x_max":0,"o":"m 81 868 l 88 875 l 588 551 l 588 525 l 88 201 l 81 208 l 329 538 m 469 868 l 476 875 l 976 551 l 976 525 l 476 201 l 469 208 l 732 538 "},"¼":{"ha":932,"x_min":0,"x_max":0,"o":"m 139 501 l 139 1113 l 44 1113 l 44 1119 l 268 1119 l 268 501 l 360 501 l 360 494 l 31 494 l 31 501 m 731 903 l 68 -139 l 56 -139 l 718 903 m 871 -143 l 600 -143 l 600 -136 l 679 -136 l 679 32 l 404 32 l 713 482 l 808 482 l 808 40 l 900 40 l 900 32 l 808 32 l 808 -136 l 871 -136 m 679 40 l 679 421 l 418 40 "},"½":{"ha":972,"x_min":0,"x_max":0,"o":"m 139 501 l 139 1113 l 44 1113 l 44 1119 l 268 1119 l 268 501 l 360 501 l 360 494 l 31 494 l 31 501 m 731 903 l 68 -139 l 56 -139 l 718 903 m 507 -140 l 507 -57 l 683 86 b 793 301 756 144 793 211 b 672 469 793 404 750 469 b 525 318 589 469 525 403 b 596 369 535 346 561 369 b 672 299 639 369 672 340 b 590 221 672 253 632 221 b 515 317 549 221 515 253 b 724 493 515 415 593 493 b 926 335 854 493 926 422 b 776 146 926 239 838 193 l 581 -15 l 938 -15 l 938 47 l 944 47 l 944 -140 "},"¾":{"ha":1015,"x_min":0,"x_max":0,"o":"m 450 663 b 221 483 450 550 346 483 b 28 626 89 483 28 557 b 100 703 28 672 58 703 b 167 633 138 703 167 676 b 96 567 167 594 133 567 b 47 592 71 567 56 578 b 200 497 58 547 110 497 b 315 663 292 497 315 572 b 172 826 315 736 292 826 l 172 833 b 290 985 283 833 290 926 b 208 1111 290 1050 267 1111 b 81 1042 151 1111 97 1079 b 125 1061 92 1057 108 1061 b 189 997 158 1061 189 1036 b 121 928 189 953 154 928 b 53 996 83 928 53 951 b 225 1124 53 1068 139 1124 b 425 981 333 1124 425 1072 b 229 829 425 906 383 842 b 450 663 393 817 450 749 m 814 903 l 151 -139 l 139 -139 l 801 903 m 954 -143 l 683 -143 l 683 -136 l 763 -136 l 763 32 l 488 32 l 796 482 l 892 482 l 892 40 l 983 40 l 983 32 l 892 32 l 892 -136 l 954 -136 m 763 40 l 763 421 l 501 40 "},"¿":{"ha":814,"x_min":0,"x_max":0,"o":"m 560 611 b 435 486 560 542 504 486 b 310 611 365 486 310 542 b 435 736 310 681 365 736 b 560 611 504 736 560 681 m 465 225 b 289 -56 338 186 289 74 b 447 -314 289 -186 310 -314 b 697 -139 578 -314 683 -211 b 613 -181 690 -154 658 -181 b 497 -76 551 -181 497 -143 b 611 36 497 -4 549 36 b 725 -85 681 36 725 -10 b 411 -333 725 -206 594 -333 b 65 -56 201 -333 65 -222 b 451 233 65 104 221 221 l 451 383 l 465 383 l 465 225 "},"À":{"ha":1086,"x_min":0,"x_max":0,"o":"m 396 1153 b 306 1229 349 1147 306 1182 b 410 1303 306 1276 356 1322 l 719 1194 l 715 1181 l 396 1153 m 151 13 l 521 1063 l 600 1063 l 965 13 l 1067 13 l 1067 0 l 594 0 l 594 13 l 715 13 l 611 333 l 278 333 l 165 13 l 331 13 l 331 0 l 25 0 l 25 13 m 282 347 l 607 347 l 450 828 "},"Á":{"ha":1086,"x_min":0,"x_max":0,"o":"m 389 1181 l 385 1194 l 694 1303 b 799 1229 749 1322 799 1276 b 708 1153 799 1182 756 1147 m 151 13 l 521 1063 l 600 1063 l 965 13 l 1067 13 l 1067 0 l 594 0 l 594 13 l 715 13 l 611 333 l 278 333 l 165 13 l 331 13 l 331 0 l 25 0 l 25 13 m 282 347 l 607 347 l 450 828 "},"Â":{"ha":1086,"x_min":0,"x_max":0,"o":"m 333 1118 l 326 1125 l 493 1313 l 611 1313 l 778 1125 l 771 1118 l 551 1215 m 151 13 l 521 1063 l 600 1063 l 965 13 l 1067 13 l 1067 0 l 594 0 l 594 13 l 715 13 l 611 333 l 278 333 l 165 13 l 331 13 l 331 0 l 25 0 l 25 13 m 282 347 l 607 347 l 450 828 "},"Ã":{"ha":1086,"x_min":0,"x_max":0,"o":"m 414 1256 b 329 1174 367 1256 329 1225 l 317 1174 b 454 1378 317 1292 365 1378 b 703 1268 565 1378 614 1268 b 788 1350 754 1268 788 1299 l 800 1350 b 676 1146 800 1218 779 1146 b 414 1256 569 1146 513 1256 m 151 13 l 521 1063 l 600 1063 l 965 13 l 1067 13 l 1067 0 l 594 0 l 594 13 l 715 13 l 611 333 l 278 333 l 165 13 l 331 13 l 331 0 l 25 0 l 25 13 m 282 347 l 607 347 l 450 828 "},"Ä":{"ha":1086,"x_min":0,"x_max":0,"o":"m 601 1253 b 708 1358 601 1311 649 1358 b 814 1253 767 1358 814 1311 b 708 1146 814 1193 767 1146 b 601 1253 649 1146 601 1193 m 303 1253 b 410 1358 303 1311 350 1358 b 515 1253 468 1358 515 1311 b 410 1146 515 1193 468 1146 b 303 1253 350 1146 303 1193 m 151 13 l 521 1063 l 600 1063 l 965 13 l 1067 13 l 1067 0 l 594 0 l 594 13 l 715 13 l 611 333 l 278 333 l 165 13 l 331 13 l 331 0 l 25 0 l 25 13 m 282 347 l 607 347 l 450 828 "},"Å":{"ha":1086,"x_min":0,"x_max":0,"o":"m 419 1254 b 558 1379 419 1325 474 1379 b 697 1254 643 1379 697 1325 b 558 1129 697 1183 643 1129 b 419 1254 474 1129 419 1183 m 503 1254 b 558 1142 503 1185 517 1142 b 614 1254 600 1142 614 1185 b 558 1367 614 1324 600 1367 b 503 1254 517 1367 503 1324 m 151 13 l 521 1063 l 600 1063 l 965 13 l 1067 13 l 1067 0 l 594 0 l 594 13 l 715 13 l 611 333 l 278 333 l 165 13 l 331 13 l 331 0 l 25 0 l 25 13 m 282 347 l 607 347 l 450 828 "},"Æ":{"ha":1451,"x_min":0,"x_max":0,"o":"m 143 13 l 729 1042 l 1396 1042 l 1396 757 l 1383 757 b 1111 1029 1363 906 1267 1029 l 944 1029 l 944 546 l 993 546 b 1168 706 1072 546 1147 613 l 1181 706 l 1181 365 l 1168 365 b 993 532 1147 458 1072 532 l 944 532 l 944 13 l 1097 13 b 1397 313 1281 13 1376 136 l 1410 313 l 1410 0 l 604 0 l 604 13 l 729 13 l 729 333 l 344 333 l 163 13 l 326 13 l 326 0 l 21 0 l 21 13 m 729 347 l 729 1015 l 351 347 "},"Ç":{"ha":975,"x_min":0,"x_max":0,"o":"m 535 -256 b 407 -171 535 -182 476 -171 l 525 -12 b 58 521 235 3 58 222 b 558 1056 58 831 249 1056 b 775 969 644 1056 718 1024 l 897 1042 l 906 1042 l 906 736 l 893 736 b 572 1036 840 911 725 1036 b 303 521 365 1036 303 774 b 572 6 303 268 365 6 b 907 306 758 6 858 142 l 919 306 l 919 0 l 911 0 l 799 78 b 558 -14 738 19 658 -14 b 543 -14 553 -14 549 -14 l 467 -115 b 689 -228 596 -119 689 -150 b 413 -358 689 -297 622 -358 l 413 -347 b 535 -256 494 -347 535 -307 "},"È":{"ha":871,"x_min":0,"x_max":0,"o":"m 264 1147 b 174 1224 217 1142 174 1176 b 278 1297 174 1271 224 1317 l 588 1189 l 583 1175 l 264 1147 m 589 365 b 414 532 568 458 493 532 l 364 532 l 364 13 l 511 13 b 817 313 701 13 796 136 l 831 313 l 831 0 l 25 0 l 25 13 l 150 13 l 150 1029 l 25 1029 l 25 1042 l 817 1042 l 817 757 l 803 757 b 525 1029 782 906 688 1029 l 364 1029 l 364 546 l 414 546 b 589 706 493 546 568 613 l 600 706 l 600 365 l 589 365 "},"É":{"ha":871,"x_min":0,"x_max":0,"o":"m 286 1175 l 282 1189 l 592 1297 b 696 1224 646 1317 696 1271 b 606 1147 696 1176 653 1142 m 589 365 b 414 532 568 458 493 532 l 364 532 l 364 13 l 511 13 b 817 313 701 13 796 136 l 831 313 l 831 0 l 25 0 l 25 13 l 150 13 l 150 1029 l 25 1029 l 25 1042 l 817 1042 l 817 757 l 803 757 b 525 1029 782 906 688 1029 l 364 1029 l 364 546 l 414 546 b 589 706 493 546 568 613 l 600 706 l 600 365 l 589 365 "},"Ê":{"ha":871,"x_min":0,"x_max":0,"o":"m 204 1111 l 197 1118 l 364 1306 l 482 1306 l 649 1118 l 642 1111 l 422 1208 m 589 365 b 414 532 568 458 493 532 l 364 532 l 364 13 l 511 13 b 817 313 701 13 796 136 l 831 313 l 831 0 l 25 0 l 25 13 l 150 13 l 150 1029 l 25 1029 l 25 1042 l 817 1042 l 817 757 l 803 757 b 525 1029 782 906 688 1029 l 364 1029 l 364 546 l 414 546 b 589 706 493 546 568 613 l 600 706 l 600 365 l 589 365 "},"Ë":{"ha":871,"x_min":0,"x_max":0,"o":"m 490 1246 b 597 1351 490 1304 538 1351 b 703 1246 656 1351 703 1304 b 597 1139 703 1186 656 1139 b 490 1246 538 1139 490 1186 m 192 1246 b 299 1351 192 1304 239 1351 b 404 1246 357 1351 404 1304 b 299 1139 404 1186 357 1139 b 192 1246 239 1139 192 1186 m 589 365 b 414 532 568 458 493 532 l 364 532 l 364 13 l 511 13 b 817 313 701 13 796 136 l 831 313 l 831 0 l 25 0 l 25 13 l 150 13 l 150 1029 l 25 1029 l 25 1042 l 817 1042 l 817 757 l 803 757 b 525 1029 782 906 688 1029 l 364 1029 l 364 546 l 414 546 b 589 706 493 546 568 613 l 600 706 l 600 365 l 589 365 "},"Ì":{"ha":579,"x_min":0,"x_max":0,"o":"m 142 1147 b 51 1224 94 1142 51 1176 b 156 1297 51 1271 101 1317 l 465 1189 l 461 1175 l 142 1147 m 178 13 l 178 1029 l 25 1029 l 25 1042 l 558 1042 l 558 1029 l 392 1029 l 392 13 l 558 13 l 558 0 l 25 0 l 25 13 "},"Í":{"ha":579,"x_min":0,"x_max":0,"o":"m 136 1175 l 132 1189 l 442 1297 b 546 1224 496 1317 546 1271 b 456 1147 546 1176 503 1142 m 178 13 l 178 1029 l 25 1029 l 25 1042 l 558 1042 l 558 1029 l 392 1029 l 392 13 l 558 13 l 558 0 l 25 0 l 25 13 "},"Î":{"ha":579,"x_min":0,"x_max":0,"o":"m 79 1146 l 72 1153 l 239 1340 l 357 1340 l 524 1153 l 517 1146 l 297 1243 m 178 13 l 178 1029 l 25 1029 l 25 1042 l 558 1042 l 558 1029 l 392 1029 l 392 13 l 558 13 l 558 0 l 25 0 l 25 13 "},"Ï":{"ha":579,"x_min":0,"x_max":0,"o":"m 346 1271 b 453 1376 346 1329 393 1376 b 558 1271 511 1376 558 1329 b 453 1164 558 1211 511 1164 b 346 1271 393 1164 346 1211 m 47 1271 b 154 1376 47 1329 94 1376 b 260 1271 213 1376 260 1329 b 154 1164 260 1211 213 1164 b 47 1271 94 1164 47 1211 m 178 13 l 178 1029 l 25 1029 l 25 1042 l 558 1042 l 558 1029 l 392 1029 l 392 13 l 558 13 l 558 0 l 25 0 l 25 13 "},"Ð":{"ha":1051,"x_min":0,"x_max":0,"o":"m 138 521 l 138 1092 l -29 1092 l -29 1104 l 565 1104 b 1271 583 1007 1104 1271 893 b 565 63 1271 274 989 63 l -29 63 l -29 75 l 138 75 l 138 507 l 42 507 l 42 521 m 424 507 l 424 75 l 565 75 b 944 583 851 75 944 310 b 565 1092 944 857 833 1092 l 424 1092 l 424 521 l 488 521 l 488 507 "},"Ñ":{"ha":1043,"x_min":0,"x_max":0,"o":"m 369 1228 b 285 1146 322 1228 285 1197 l 272 1146 b 410 1350 272 1264 321 1350 b 658 1240 521 1350 569 1240 b 743 1322 710 1240 743 1271 l 756 1322 b 632 1118 756 1190 735 1118 b 369 1228 525 1118 468 1228 m 164 13 l 164 1029 l 25 1029 l 25 1042 l 419 1042 l 864 356 l 864 1029 l 706 1029 l 706 1042 l 1022 1042 l 1022 1029 l 878 1029 l 878 -14 l 856 -14 l 178 1021 l 178 13 l 339 13 l 339 0 l 25 0 l 25 13 "},"Ò":{"ha":1058,"x_min":0,"x_max":0,"o":"m 392 1167 b 301 1243 344 1161 301 1196 b 406 1317 301 1290 351 1336 l 715 1208 l 711 1194 l 392 1167 m 531 -14 b 58 521 235 -14 58 218 b 531 1056 58 824 249 1056 b 1003 521 813 1056 1003 824 b 531 -14 1003 218 826 -14 m 531 1044 b 303 521 351 1044 303 808 b 531 -3 303 233 338 -3 b 761 521 724 -3 761 233 b 531 1044 761 808 710 1044 "},"Ó":{"ha":1058,"x_min":0,"x_max":0,"o":"m 331 1194 l 326 1208 l 636 1317 b 740 1243 690 1336 740 1290 b 650 1167 740 1196 697 1161 m 531 -14 b 58 521 235 -14 58 218 b 531 1056 58 824 249 1056 b 1003 521 813 1056 1003 824 b 531 -14 1003 218 826 -14 m 531 1044 b 303 521 351 1044 303 808 b 531 -3 303 233 338 -3 b 761 521 724 -3 761 233 b 531 1044 761 808 710 1044 "},"Ô":{"ha":1058,"x_min":0,"x_max":0,"o":"m 319 1146 l 313 1153 l 479 1340 l 597 1340 l 764 1153 l 757 1146 l 538 1243 m 531 -14 b 58 521 235 -14 58 218 b 531 1056 58 824 249 1056 b 1003 521 813 1056 1003 824 b 531 -14 1003 218 826 -14 m 531 1044 b 303 521 351 1044 303 808 b 531 -3 303 233 338 -3 b 761 521 724 -3 761 233 b 531 1044 761 808 710 1044 "},"Õ":{"ha":1058,"x_min":0,"x_max":0,"o":"m 394 1228 b 310 1146 347 1228 310 1197 l 297 1146 b 435 1350 297 1264 346 1350 b 683 1240 546 1350 594 1240 b 768 1322 735 1240 768 1271 l 781 1322 b 657 1118 781 1190 760 1118 b 394 1228 550 1118 493 1228 m 531 -14 b 58 521 235 -14 58 218 b 531 1056 58 824 249 1056 b 1003 521 813 1056 1003 824 b 531 -14 1003 218 826 -14 m 531 1044 b 303 521 351 1044 303 808 b 531 -3 303 233 338 -3 b 761 521 724 -3 761 233 b 531 1044 761 808 710 1044 "},"Ö":{"ha":1058,"x_min":0,"x_max":0,"o":"m 599 1271 b 706 1376 599 1329 646 1376 b 811 1271 764 1376 811 1329 b 706 1164 811 1211 764 1164 b 599 1271 646 1164 599 1211 m 300 1271 b 407 1376 300 1329 347 1376 b 513 1271 465 1376 513 1329 b 407 1164 513 1211 465 1164 b 300 1271 347 1164 300 1211 m 531 -14 b 58 521 235 -14 58 218 b 531 1056 58 824 249 1056 b 1003 521 813 1056 1003 824 b 531 -14 1003 218 826 -14 m 531 1044 b 303 521 351 1044 303 808 b 531 -3 303 233 338 -3 b 761 521 724 -3 761 233 b 531 1044 761 808 710 1044 "},"×":{"ha":736,"x_min":0,"x_max":0,"o":"m 357 439 l 161 635 l 171 644 l 367 449 l 563 644 l 572 635 l 376 439 l 574 242 l 564 232 l 367 429 l 171 232 l 160 242 "},"Ø":{"ha":1058,"x_min":0,"x_max":0,"o":"m 531 -14 b 308 39 446 -14 372 4 l 226 -139 l 214 -139 l 299 44 b 58 521 144 131 58 308 b 531 1056 58 824 249 1056 b 744 1004 610 1056 682 1038 l 813 1153 l 825 1153 l 754 999 b 1003 521 908 913 1003 735 b 531 -14 1003 218 826 -14 m 531 1044 b 303 521 351 1044 303 808 b 346 146 303 375 311 242 l 703 915 b 531 1044 667 996 613 1044 m 761 521 b 708 901 761 671 747 806 l 351 132 b 531 -3 385 49 440 -3 b 761 521 724 -3 761 233 "},"Ù":{"ha":1003,"x_min":0,"x_max":0,"o":"m 372 1153 b 282 1229 325 1147 282 1182 b 386 1303 282 1276 332 1322 l 696 1194 l 692 1181 l 372 1153 m 503 1042 l 503 1029 l 364 1029 l 364 333 b 578 3 364 150 399 3 b 836 319 732 3 836 99 l 836 1029 l 711 1029 l 711 1042 l 983 1042 l 983 1029 l 850 1029 l 850 319 b 525 -21 850 90 751 -21 b 150 319 264 -21 150 79 l 150 1029 l 25 1029 l 25 1042 "},"Ú":{"ha":1003,"x_min":0,"x_max":0,"o":"m 308 1181 l 304 1194 l 614 1303 b 718 1229 668 1322 718 1276 b 628 1153 718 1182 675 1147 m 503 1042 l 503 1029 l 364 1029 l 364 333 b 578 3 364 150 399 3 b 836 319 732 3 836 99 l 836 1029 l 711 1029 l 711 1042 l 983 1042 l 983 1029 l 850 1029 l 850 319 b 525 -21 850 90 751 -21 b 150 319 264 -21 150 79 l 150 1029 l 25 1029 l 25 1042 "},"Û":{"ha":1003,"x_min":0,"x_max":0,"o":"m 313 1146 l 306 1153 l 472 1340 l 590 1340 l 757 1153 l 750 1146 l 531 1243 m 503 1042 l 503 1029 l 364 1029 l 364 333 b 578 3 364 150 399 3 b 836 319 732 3 836 99 l 836 1029 l 711 1029 l 711 1042 l 983 1042 l 983 1029 l 850 1029 l 850 319 b 525 -21 850 90 751 -21 b 150 319 264 -21 150 79 l 150 1029 l 25 1029 l 25 1042 "},"Ü":{"ha":1003,"x_min":0,"x_max":0,"o":"m 576 1271 b 683 1376 576 1329 624 1376 b 789 1271 742 1376 789 1329 b 683 1164 789 1211 742 1164 b 576 1271 624 1164 576 1211 m 278 1271 b 385 1376 278 1329 325 1376 b 490 1271 443 1376 490 1329 b 385 1164 490 1211 443 1164 b 278 1271 325 1164 278 1211 m 503 1042 l 503 1029 l 364 1029 l 364 333 b 578 3 364 150 399 3 b 836 319 732 3 836 99 l 836 1029 l 711 1029 l 711 1042 l 983 1042 l 983 1029 l 850 1029 l 850 319 b 525 -21 850 90 751 -21 b 150 319 264 -21 150 79 l 150 1029 l 25 1029 l 25 1042 "},"Ý":{"ha":1024,"x_min":0,"x_max":0,"o":"m 361 1181 l 357 1194 l 667 1303 b 771 1229 721 1322 771 1276 b 681 1153 771 1182 728 1147 m 419 13 l 419 500 l 113 1029 l 17 1029 l 17 1042 l 503 1042 l 503 1029 l 363 1029 l 628 550 l 878 1029 l 719 1029 l 719 1042 l 1011 1042 l 1011 1029 l 894 1029 l 636 532 l 636 13 l 775 13 l 775 0 l 294 0 l 294 13 "},"Þ":{"ha":931,"x_min":0,"x_max":0,"o":"m 146 13 l 146 1029 l 21 1029 l 21 1042 l 486 1042 l 486 1029 l 361 1029 l 361 833 l 514 833 b 882 542 765 833 882 722 b 514 250 882 361 765 250 l 361 250 l 361 13 l 486 13 l 486 0 l 21 0 l 21 13 m 361 821 l 361 263 l 465 263 b 646 542 599 263 646 418 b 465 821 646 665 599 821 "},"ß":{"ha":1071,"x_min":0,"x_max":0,"o":"m 146 13 l 146 682 b 581 1056 146 936 354 1056 b 974 807 779 1056 974 957 b 647 563 974 671 867 581 b 1015 243 915 540 1015 407 b 689 -14 1015 76 857 -14 b 469 217 563 -14 469 75 b 590 335 469 294 528 335 b 700 229 646 335 700 300 b 586 125 700 164 640 125 b 489 185 546 125 501 150 b 668 3 496 76 582 3 b 792 222 771 3 792 133 b 560 557 792 353 767 557 l 560 569 b 750 793 711 569 750 704 b 574 1044 750 893 711 1044 b 354 668 401 1044 354 865 l 354 13 l 479 13 l 479 0 l 21 0 l 21 13 "},"à":{"ha":804,"x_min":0,"x_max":0,"o":"m 208 750 b 118 826 161 744 118 779 b 222 900 118 874 168 919 l 532 792 l 528 778 l 208 750 m 456 356 l 456 424 b 325 633 456 531 429 633 b 178 588 258 633 201 610 b 324 504 254 613 324 569 b 207 404 324 442 263 404 b 100 501 144 404 100 444 b 361 650 100 590 221 650 b 650 424 590 650 650 550 l 650 72 b 700 21 650 42 667 21 b 793 92 724 21 765 38 l 803 88 b 618 -14 771 18 699 -14 b 456 108 532 -14 456 15 l 456 153 b 239 -14 431 44 361 -14 b 51 157 129 -14 51 54 b 356 356 51 274 154 356 m 340 50 b 456 251 396 50 456 99 l 456 342 l 404 342 b 263 176 319 342 263 267 b 340 50 263 99 289 50 "},"á":{"ha":804,"x_min":0,"x_max":0,"o":"m 160 778 l 156 792 l 465 900 b 569 826 519 919 569 874 b 479 750 569 779 526 744 m 456 356 l 456 424 b 325 633 456 531 429 633 b 178 588 258 633 201 610 b 324 504 254 613 324 569 b 207 404 324 442 263 404 b 100 501 144 404 100 444 b 361 650 100 590 221 650 b 650 424 590 650 650 550 l 650 72 b 700 21 650 42 667 21 b 793 92 724 21 765 38 l 803 88 b 618 -14 771 18 699 -14 b 456 108 532 -14 456 15 l 456 153 b 239 -14 431 44 361 -14 b 51 157 129 -14 51 54 b 356 356 51 274 154 356 m 340 50 b 456 251 396 50 456 99 l 456 342 l 404 342 b 263 176 319 342 263 267 b 340 50 263 99 289 50 "},"â":{"ha":804,"x_min":0,"x_max":0,"o":"m 171 743 l 164 750 l 331 938 l 449 938 l 615 750 l 608 743 l 389 840 m 456 356 l 456 424 b 325 633 456 531 429 633 b 178 588 258 633 201 610 b 324 504 254 613 324 569 b 207 404 324 442 263 404 b 100 501 144 404 100 444 b 361 650 100 590 221 650 b 650 424 590 650 650 550 l 650 72 b 700 21 650 42 667 21 b 793 92 724 21 765 38 l 803 88 b 618 -14 771 18 699 -14 b 456 108 532 -14 456 15 l 456 153 b 239 -14 431 44 361 -14 b 51 157 129 -14 51 54 b 356 356 51 274 154 356 m 340 50 b 456 251 396 50 456 99 l 456 342 l 404 342 b 263 176 319 342 263 267 b 340 50 263 99 289 50 "},"ã":{"ha":804,"x_min":0,"x_max":0,"o":"m 251 846 b 167 764 204 846 167 815 l 154 764 b 292 968 154 882 203 968 b 540 858 403 968 451 858 b 625 940 592 858 625 889 l 638 940 b 514 736 638 808 617 736 b 251 846 407 736 350 846 m 456 356 l 456 424 b 325 633 456 531 429 633 b 178 588 258 633 201 610 b 324 504 254 613 324 569 b 207 404 324 442 263 404 b 100 501 144 404 100 444 b 361 650 100 590 221 650 b 650 424 590 650 650 550 l 650 72 b 700 21 650 42 667 21 b 793 92 724 21 765 38 l 803 88 b 618 -14 771 18 699 -14 b 456 108 532 -14 456 15 l 456 153 b 239 -14 431 44 361 -14 b 51 157 129 -14 51 54 b 356 356 51 274 154 356 m 340 50 b 456 251 396 50 456 99 l 456 342 l 404 342 b 263 176 319 342 263 267 b 340 50 263 99 289 50 "},"ä":{"ha":804,"x_min":0,"x_max":0,"o":"m 438 843 b 544 949 438 901 485 949 b 650 843 603 949 650 901 b 544 736 650 783 603 736 b 438 843 485 736 438 783 m 139 843 b 246 949 139 901 186 949 b 351 843 304 949 351 901 b 246 736 351 783 304 736 b 139 843 186 736 139 783 m 456 356 l 456 424 b 325 633 456 531 429 633 b 178 588 258 633 201 610 b 324 504 254 613 324 569 b 207 404 324 442 263 404 b 100 501 144 404 100 444 b 361 650 100 590 221 650 b 650 424 590 650 650 550 l 650 72 b 700 21 650 42 667 21 b 793 92 724 21 765 38 l 803 88 b 618 -14 771 18 699 -14 b 456 108 532 -14 456 15 l 456 153 b 239 -14 431 44 361 -14 b 51 157 129 -14 51 54 b 356 356 51 274 154 356 m 340 50 b 456 251 396 50 456 99 l 456 342 l 404 342 b 263 176 319 342 263 267 b 340 50 263 99 289 50 "},"å":{"ha":804,"x_min":0,"x_max":0,"o":"m 257 861 b 396 986 257 932 311 986 b 535 861 481 986 535 932 b 396 736 535 790 481 736 b 257 861 311 736 257 790 m 340 861 b 396 749 340 792 354 749 b 451 861 438 749 451 792 b 396 974 451 931 438 974 b 340 861 354 974 340 931 m 456 356 l 456 424 b 325 633 456 531 429 633 b 178 588 258 633 201 610 b 324 504 254 613 324 569 b 207 404 324 442 263 404 b 100 501 144 404 100 444 b 361 650 100 590 221 650 b 650 424 590 650 650 550 l 650 72 b 700 21 650 42 667 21 b 793 92 724 21 765 38 l 803 88 b 618 -14 771 18 699 -14 b 456 108 532 -14 456 15 l 456 153 b 239 -14 431 44 361 -14 b 51 157 129 -14 51 54 b 356 356 51 274 154 356 m 340 50 b 456 251 396 50 456 99 l 456 342 l 404 342 b 263 176 319 342 263 267 b 340 50 263 99 289 50 "},"æ":{"ha":1157,"x_min":0,"x_max":0,"o":"m 97 501 b 358 650 97 590 218 650 b 583 543 475 650 547 608 b 817 653 636 615 718 653 b 1121 353 1024 653 1121 504 l 694 353 b 694 333 694 346 694 340 b 856 6 694 175 722 6 b 1110 199 983 6 1075 88 l 1122 199 b 819 -14 1086 78 988 -14 b 571 117 711 -14 622 32 b 306 -14 519 32 418 -14 b 49 157 154 -14 49 40 b 353 358 49 274 156 358 l 453 358 l 453 424 b 322 633 453 517 433 633 b 169 583 260 633 197 611 b 321 504 247 614 321 569 b 204 404 321 442 260 404 b 97 501 142 404 97 444 m 914 364 b 817 640 913 485 906 640 b 694 364 728 640 699 511 l 914 364 m 347 3 b 453 217 406 3 453 90 l 453 346 l 401 346 b 260 167 317 346 260 267 b 347 3 260 74 292 3 "},"ç":{"ha":714,"x_min":0,"x_max":0,"o":"m 379 -247 b 251 -162 379 -174 321 -162 l 364 -14 b 44 319 174 -4 44 107 b 397 653 44 514 167 653 b 658 464 546 653 658 571 b 549 353 658 393 611 353 b 435 461 493 353 435 381 b 539 567 435 531 492 567 b 608 538 575 567 597 551 b 421 638 588 590 507 638 b 274 319 290 638 274 450 b 425 8 274 161 306 8 b 646 199 536 8 610 86 l 660 199 b 389 -14 624 78 543 -14 l 381 -14 l 311 -107 b 533 -219 440 -111 533 -142 b 257 -350 533 -289 467 -350 l 257 -339 b 379 -247 339 -339 379 -299 "},"è":{"ha":726,"x_min":0,"x_max":0,"o":"m 281 764 b 190 840 233 758 190 793 b 294 914 190 888 240 933 l 604 806 l 600 792 l 281 764 m 688 199 b 386 -14 651 78 554 -14 b 44 319 190 -14 44 104 b 381 653 44 535 185 653 b 686 356 588 653 686 507 l 260 356 b 260 333 260 349 260 340 b 421 6 260 154 290 6 b 675 199 547 6 640 88 l 688 199 m 381 640 b 260 369 292 640 264 514 l 481 369 b 381 640 481 486 469 640 "},"é":{"ha":726,"x_min":0,"x_max":0,"o":"m 176 792 l 172 806 l 482 914 b 586 840 536 933 586 888 b 496 764 586 793 543 758 m 688 199 b 386 -14 651 78 554 -14 b 44 319 190 -14 44 104 b 381 653 44 535 185 653 b 686 356 588 653 686 507 l 260 356 b 260 333 260 349 260 340 b 421 6 260 154 290 6 b 675 199 547 6 640 88 l 688 199 m 381 640 b 260 369 292 640 264 514 l 481 369 b 381 640 481 486 469 640 "},"ê":{"ha":726,"x_min":0,"x_max":0,"o":"m 181 708 l 174 715 l 340 903 l 458 903 l 625 715 l 618 708 l 399 806 m 688 199 b 386 -14 651 78 554 -14 b 44 319 190 -14 44 104 b 381 653 44 535 185 653 b 686 356 588 653 686 507 l 260 356 b 260 333 260 349 260 340 b 421 6 260 154 290 6 b 675 199 547 6 640 88 l 688 199 m 381 640 b 260 369 292 640 264 514 l 481 369 b 381 640 481 486 469 640 "},"ë":{"ha":726,"x_min":0,"x_max":0,"o":"m 438 843 b 544 949 438 901 485 949 b 650 843 603 949 650 901 b 544 736 650 783 603 736 b 438 843 485 736 438 783 m 139 843 b 246 949 139 901 186 949 b 351 843 304 949 351 901 b 246 736 351 783 304 736 b 139 843 186 736 139 783 m 688 199 b 386 -14 651 78 554 -14 b 44 319 190 -14 44 104 b 381 653 44 535 185 653 b 686 356 588 653 686 507 l 260 356 b 260 333 260 349 260 340 b 421 6 260 154 290 6 b 675 199 547 6 640 88 l 688 199 m 381 640 b 260 369 292 640 264 514 l 481 369 b 381 640 481 486 469 640 "},"ì":{"ha":444,"x_min":0,"x_max":0,"o":"m 35 750 b -56 826 -12 744 -56 779 b 49 900 -56 874 -6 919 l 358 792 l 354 778 l 35 750 m 125 13 l 125 626 l 28 626 l 28 639 l 319 639 l 319 13 l 417 13 l 417 0 l 28 0 l 28 13 "},"í":{"ha":444,"x_min":0,"x_max":0,"o":"m 0 778 l -4 792 l 306 900 b 410 826 360 919 410 874 b 319 750 410 779 367 744 m 125 13 l 125 626 l 28 626 l 28 639 l 319 639 l 319 13 l 417 13 l 417 0 l 28 0 l 28 13 "},"î":{"ha":444,"x_min":0,"x_max":0,"o":"m -31 743 l -37 750 l 129 938 l 247 938 l 414 750 l 407 743 l 188 840 m 125 13 l 125 626 l 28 626 l 28 639 l 319 639 l 319 13 l 417 13 l 417 0 l 28 0 l 28 13 "},"ï":{"ha":444,"x_min":0,"x_max":0,"o":"m 243 864 b 350 969 243 922 290 969 b 456 864 408 969 456 922 b 350 757 456 804 408 757 b 243 864 290 757 243 804 m -56 864 b 51 969 -56 922 -8 969 b 157 864 110 969 157 922 b 51 757 157 804 110 757 b -56 864 -8 757 -56 804 m 125 13 l 125 626 l 28 626 l 28 639 l 319 639 l 319 13 l 417 13 l 417 0 l 28 0 l 28 13 "},"ð":{"ha":847,"x_min":0,"x_max":0,"o":"m 778 431 b 404 -14 778 139 628 -14 b 42 347 181 -14 42 139 b 367 683 42 583 213 683 b 549 515 481 683 531 617 b 436 863 542 633 501 763 l 181 863 l 181 875 l 428 875 b 146 1046 358 975 263 1046 l 146 1056 b 596 875 325 1056 482 988 l 799 875 l 799 863 l 608 863 b 778 431 714 751 778 600 m 271 347 b 400 -1 271 154 290 -1 b 549 389 510 -1 549 168 b 407 658 549 571 496 658 b 271 347 318 658 271 568 "},"ñ":{"ha":850,"x_min":0,"x_max":0,"o":"m 292 846 b 207 764 244 846 207 815 l 194 764 b 332 968 194 882 243 968 b 581 858 443 968 492 858 b 665 940 632 858 665 889 l 678 940 b 554 736 678 808 657 736 b 292 846 447 736 390 846 m 117 13 l 117 626 l 24 626 l 24 639 l 311 639 l 311 431 b 538 653 331 544 388 653 b 735 443 690 653 735 564 l 735 13 l 828 13 l 828 0 l 468 0 l 468 13 l 540 13 l 540 436 b 467 606 540 553 525 606 b 311 310 350 606 311 442 l 311 13 l 383 13 l 383 0 l 24 0 l 24 13 "},"ò":{"ha":765,"x_min":0,"x_max":0,"o":"m 275 758 b 185 835 228 753 185 788 b 289 908 185 882 235 928 l 599 800 l 594 786 l 275 758 m 44 319 b 383 653 44 500 174 653 b 722 319 593 653 722 500 b 383 -14 722 139 593 -14 b 44 319 174 -14 44 139 m 253 319 b 383 -1 253 154 281 -1 b 514 319 486 -1 514 154 b 383 640 514 485 486 640 b 253 319 281 640 253 485 "},"ó":{"ha":765,"x_min":0,"x_max":0,"o":"m 200 786 l 196 800 l 506 908 b 610 835 560 928 610 882 b 519 758 610 788 567 753 m 44 319 b 383 653 44 500 174 653 b 722 319 593 653 722 500 b 383 -14 722 139 593 -14 b 44 319 174 -14 44 139 m 253 319 b 383 -1 253 154 281 -1 b 514 319 486 -1 514 154 b 383 640 514 485 486 640 b 253 319 281 640 253 485 "},"ô":{"ha":765,"x_min":0,"x_max":0,"o":"m 171 743 l 164 750 l 331 938 l 449 938 l 615 750 l 608 743 l 389 840 m 44 319 b 383 653 44 500 174 653 b 722 319 593 653 722 500 b 383 -14 722 139 593 -14 b 44 319 174 -14 44 139 m 253 319 b 383 -1 253 154 281 -1 b 514 319 486 -1 514 154 b 383 640 514 485 486 640 b 253 319 281 640 253 485 "},"õ":{"ha":765,"x_min":0,"x_max":0,"o":"m 246 846 b 161 764 199 846 161 815 l 149 764 b 286 968 149 882 197 968 b 535 858 397 968 446 858 b 619 940 586 858 619 889 l 632 940 b 508 736 632 808 611 736 b 246 846 401 736 344 846 m 44 319 b 383 653 44 500 174 653 b 722 319 593 653 722 500 b 383 -14 722 139 593 -14 b 44 319 174 -14 44 139 m 253 319 b 383 -1 253 154 281 -1 b 514 319 486 -1 514 154 b 383 640 514 485 486 640 b 253 319 281 640 253 485 "},"ö":{"ha":765,"x_min":0,"x_max":0,"o":"m 440 843 b 547 949 440 901 488 949 b 653 843 606 949 653 901 b 547 736 653 783 606 736 b 440 843 488 736 440 783 m 142 843 b 249 949 142 901 189 949 b 354 843 307 949 354 901 b 249 736 354 783 307 736 b 142 843 189 736 142 783 m 44 319 b 383 653 44 500 174 653 b 722 319 593 653 722 500 b 383 -14 722 139 593 -14 b 44 319 174 -14 44 139 m 253 319 b 383 -1 253 154 281 -1 b 514 319 486 -1 514 154 b 383 640 514 485 486 640 b 253 319 281 640 253 485 "},"÷":{"ha":847,"x_min":0,"x_max":0,"o":"m 299 806 b 424 931 299 875 354 931 b 549 806 493 931 549 875 b 424 681 549 736 493 681 b 299 806 354 681 299 736 m 785 556 l 785 542 l 63 542 l 63 556 m 299 271 b 424 396 299 340 354 396 b 549 271 493 396 549 340 b 424 146 549 201 493 146 b 299 271 354 146 299 201 "},"ø":{"ha":765,"x_min":0,"x_max":0,"o":"m 44 319 b 383 653 44 500 174 653 b 553 613 449 653 506 638 l 671 804 l 683 804 l 563 607 b 722 319 664 549 722 440 b 383 -14 722 139 593 -14 b 208 29 315 -14 257 1 l 85 -171 l 72 -171 l 199 35 b 44 319 100 93 44 200 m 253 319 b 267 146 253 258 257 197 l 494 517 b 383 640 476 590 442 640 b 253 319 281 640 253 485 m 514 319 b 499 501 514 385 510 449 l 269 131 b 383 -1 289 53 322 -1 b 514 319 486 -1 514 154 "},"ù":{"ha":850,"x_min":0,"x_max":0,"o":"m 301 764 b 211 840 254 758 211 793 b 315 914 211 888 261 933 l 625 806 l 621 792 l 301 764 m 311 203 b 383 33 311 86 325 33 b 540 329 500 33 540 197 l 540 626 l 450 626 l 450 639 l 735 639 l 735 13 l 828 13 l 828 0 l 540 0 l 540 208 b 314 -14 521 94 464 -14 b 117 196 161 -14 117 75 l 117 626 l 24 626 l 24 639 l 311 639 "},"ú":{"ha":850,"x_min":0,"x_max":0,"o":"m 211 786 l 207 800 l 517 908 b 621 835 571 928 621 882 b 531 758 621 788 578 753 m 311 203 b 383 33 311 86 325 33 b 540 329 500 33 540 197 l 540 626 l 450 626 l 450 639 l 735 639 l 735 13 l 828 13 l 828 0 l 540 0 l 540 208 b 314 -14 521 94 464 -14 b 117 196 161 -14 117 75 l 117 626 l 24 626 l 24 639 l 311 639 "},"û":{"ha":850,"x_min":0,"x_max":0,"o":"m 169 743 l 163 750 l 329 938 l 447 938 l 614 750 l 607 743 l 388 840 m 311 203 b 383 33 311 86 325 33 b 540 329 500 33 540 197 l 540 626 l 450 626 l 450 639 l 735 639 l 735 13 l 828 13 l 828 0 l 540 0 l 540 208 b 314 -14 521 94 464 -14 b 117 196 161 -14 117 75 l 117 626 l 24 626 l 24 639 l 311 639 "},"ü":{"ha":850,"x_min":0,"x_max":0,"o":"m 497 868 b 604 974 497 926 544 974 b 710 868 663 974 710 926 b 604 761 710 808 663 761 b 497 868 544 761 497 808 m 199 868 b 306 974 199 926 246 974 b 411 868 364 974 411 926 b 306 761 411 808 364 761 b 199 868 246 761 199 808 m 311 203 b 383 33 311 86 325 33 b 540 329 500 33 540 197 l 540 626 l 450 626 l 450 639 l 735 639 l 735 13 l 828 13 l 828 0 l 540 0 l 540 208 b 314 -14 521 94 464 -14 b 117 196 161 -14 117 75 l 117 626 l 24 626 l 24 639 l 311 639 "},"ý":{"ha":817,"x_min":0,"x_max":0,"o":"m 253 792 l 249 806 l 558 914 b 663 840 613 933 663 888 b 572 764 663 793 619 758 m 418 -28 l 82 626 l -8 626 l -8 639 l 444 639 l 444 626 l 313 626 l 525 203 l 721 626 l 583 626 l 583 639 l 833 639 l 833 626 l 739 626 l 324 -267 b 203 -358 297 -322 263 -358 b 94 -254 147 -358 94 -321 b 206 -144 94 -194 140 -144 b 313 -257 265 -144 314 -194 "},"þ":{"ha":865,"x_min":0,"x_max":0,"o":"m 118 -335 l 118 1029 l 21 1029 l 21 1042 l 313 1042 l 313 436 b 529 651 338 575 413 651 b 824 319 681 651 824 528 b 529 -14 824 111 681 -14 b 313 201 413 -14 338 64 l 313 -335 l 410 -335 l 410 -347 l 21 -347 l 21 -335 m 313 319 b 482 14 313 111 401 14 b 601 319 567 14 601 125 b 483 625 601 514 568 625 b 313 319 401 625 313 528 "},"ÿ":{"ha":817,"x_min":0,"x_max":0,"o":"m 507 910 b 614 1015 507 968 554 1015 b 719 910 672 1015 719 968 b 614 803 719 850 672 803 b 507 910 554 803 507 850 m 208 910 b 315 1015 208 968 256 1015 b 421 910 374 1015 421 968 b 315 803 421 850 374 803 b 208 910 256 803 208 850 m 418 -28 l 82 626 l -8 626 l -8 639 l 444 639 l 444 626 l 313 626 l 525 203 l 721 626 l 583 626 l 583 639 l 833 639 l 833 626 l 739 626 l 324 -267 b 203 -358 297 -322 263 -358 b 94 -254 147 -358 94 -321 b 206 -144 94 -194 140 -144 b 313 -257 265 -144 314 -194 "},"ı":{"ha":444,"x_min":0,"x_max":0,"o":"m 125 13 l 125 626 l 28 626 l 28 639 l 319 639 l 319 13 l 417 13 l 417 0 l 28 0 l 28 13 "},"‘":{"ha":382,"x_min":0,"x_max":0,"o":"m 326 757 b 192 633 326 690 265 633 b 53 819 117 633 53 697 b 329 1081 53 958 163 1081 l 329 1067 b 71 769 176 1067 47 956 b 204 881 86 829 138 881 b 326 757 279 881 326 824 "},"’":{"ha":382,"x_min":0,"x_max":0,"o":"m 56 946 b 190 1069 56 1013 117 1069 b 329 883 265 1069 329 1006 b 53 622 329 744 219 622 l 53 636 b 311 933 206 636 335 747 b 178 822 296 874 244 822 b 56 946 103 822 56 879 "},"Ą":{"ha":1086,"x_min":0,"x_max":0,"o":"m 151 13 l 521 1063 l 600 1063 l 965 13 l 1067 13 l 1067 0 l 897 0 b 853 -151 874 -26 853 -81 b 919 -272 853 -228 879 -272 b 1003 -206 958 -272 983 -242 l 1011 -210 b 839 -311 990 -249 958 -311 b 667 -192 747 -311 667 -275 b 849 0 667 -101 757 -37 l 594 0 l 594 13 l 715 13 l 611 333 l 278 333 l 165 13 l 331 13 l 331 0 l 25 0 l 25 13 m 282 347 l 607 347 l 450 828 "},"ų":{"ha":850,"x_min":0,"x_max":0,"o":"m 311 203 b 383 33 311 86 325 33 b 540 329 500 33 540 197 l 540 626 l 450 626 l 450 639 l 735 639 l 735 13 l 828 13 l 828 0 l 696 0 b 650 -153 672 -25 650 -81 b 717 -274 650 -229 676 -274 b 800 -207 756 -274 781 -243 l 808 -211 b 636 -312 788 -250 756 -312 b 464 -193 544 -312 464 -276 b 649 0 464 -101 557 -36 l 540 0 l 540 208 b 314 -14 521 94 464 -14 b 117 196 161 -14 117 75 l 117 626 l 24 626 l 24 639 l 311 639 "},"ċ":{"ha":714,"x_min":0,"x_max":0,"o":"m 300 867 b 407 974 300 926 347 974 b 513 867 465 974 513 926 b 407 761 513 808 465 761 b 300 867 347 761 300 808 m 608 538 b 421 638 588 590 507 638 b 274 319 290 638 274 450 b 425 8 274 161 306 8 b 646 199 536 8 610 86 l 660 199 b 389 -14 624 78 543 -14 b 44 319 186 -14 44 97 b 397 653 44 514 167 653 b 658 464 546 653 658 571 b 549 353 658 393 611 353 b 435 461 493 353 435 381 b 539 567 435 531 492 567 b 608 538 575 567 597 551 "},"Ţ":{"ha":940,"x_min":0,"x_max":0,"o":"m 364 13 l 364 1029 l 275 1029 b 36 708 126 1029 57 885 l 25 708 l 25 1042 l 919 1042 l 919 708 l 908 708 b 669 1029 888 885 818 1029 l 581 1029 l 581 13 l 733 13 l 733 0 l 476 0 l 417 -79 b 639 -192 546 -83 639 -114 b 363 -322 639 -261 572 -322 l 363 -311 b 485 -219 444 -311 485 -271 b 357 -135 485 -146 426 -135 l 458 0 l 211 0 l 211 13 "},"Ĺ":{"ha":854,"x_min":0,"x_max":0,"o":"m 289 1153 l 285 1167 l 594 1275 b 699 1201 649 1294 699 1249 b 608 1125 699 1154 656 1119 m 25 0 l 25 13 l 150 13 l 150 1029 l 25 1029 l 25 1042 l 489 1042 l 489 1029 l 364 1029 l 364 13 l 507 13 b 814 313 711 13 793 136 l 826 313 l 826 0 "},"¸":{"ha":764,"x_min":0,"x_max":0,"o":"m 429 -194 b 301 -110 429 -121 371 -110 l 426 57 l 444 57 l 361 -54 b 583 -167 490 -58 583 -89 b 307 -297 583 -236 517 -297 l 307 -286 b 429 -194 389 -286 429 -246 "},"˜":{"ha":622,"x_min":0,"x_max":0,"o":"m 167 908 b 82 826 119 908 82 878 l 69 826 b 207 1031 69 944 118 1031 b 456 921 318 1031 367 921 b 540 1003 507 921 540 951 l 553 1003 b 429 799 553 871 532 799 b 167 908 322 799 265 908 "},"–":{"ha":558,"x_min":0,"x_max":0,"o":"m 475 389 l 475 375 l 83 375 l 83 389 "},"ğ":{"ha":857,"x_min":0,"x_max":0,"o":"m 250 957 b 404 868 250 893 329 868 b 558 957 479 868 558 893 l 571 957 b 404 736 571 824 522 736 b 238 957 286 736 238 824 l 250 957 m 68 94 b 269 231 68 179 167 218 b 58 438 160 249 58 313 b 342 653 58 590 208 653 b 565 578 422 653 510 629 b 708 646 606 628 661 646 b 842 531 800 646 842 583 b 753 429 842 454 794 429 b 667 517 711 429 667 457 b 750 599 667 563 700 599 b 817 564 781 599 810 582 b 708 633 807 600 771 633 b 575 568 664 633 613 617 b 625 438 606 535 625 492 b 342 225 625 285 475 225 b 303 226 329 225 317 225 b 190 160 249 218 190 197 b 332 117 190 118 256 117 b 451 118 381 117 413 118 b 683 -114 556 118 683 75 b 357 -361 683 -282 544 -361 b 24 -185 193 -361 24 -312 b 207 -37 24 -79 136 -44 b 68 94 128 -21 68 18 m 260 438 b 342 238 260 321 267 238 b 424 438 396 238 424 321 b 342 640 424 554 396 640 b 260 438 288 640 260 554 m 190 -150 b 369 -346 190 -258 250 -346 b 631 -172 494 -346 631 -297 b 454 -47 631 -89 544 -47 l 310 -47 b 236 -43 285 -47 260 -46 b 190 -150 196 -71 190 -122 "},"Ķ":{"ha":1065,"x_min":0,"x_max":0,"o":"m 150 13 l 150 1029 l 25 1029 l 25 1042 l 503 1042 l 503 1029 l 364 1029 l 364 493 l 822 1029 l 664 1029 l 664 1042 l 997 1042 l 997 1029 l 842 1029 l 547 683 l 943 13 l 1058 13 l 1058 0 l 558 0 l 558 13 l 693 13 l 406 519 l 364 471 l 364 13 l 489 13 l 489 0 l 25 0 l 25 13 m 414 -207 b 549 -83 414 -140 475 -83 b 688 -269 624 -83 688 -147 b 411 -531 688 -408 578 -531 l 411 -517 b 669 -219 564 -517 693 -406 b 536 -331 654 -279 603 -331 b 414 -207 461 -331 414 -274 "},"ō":{"ha":765,"x_min":0,"x_max":0,"o":"m 583 753 l 583 739 l 192 739 l 192 753 m 44 319 b 383 653 44 500 174 653 b 722 319 593 653 722 500 b 383 -14 722 139 593 -14 b 44 319 174 -14 44 139 m 253 319 b 383 -1 253 154 281 -1 b 514 319 486 -1 514 154 b 383 640 514 485 486 640 b 253 319 281 640 253 485 "},"Ă":{"ha":1086,"x_min":0,"x_max":0,"o":"m 399 1381 b 553 1292 399 1317 478 1292 b 707 1381 628 1292 707 1317 l 719 1381 b 553 1160 719 1247 671 1160 b 386 1381 435 1160 386 1247 l 399 1381 m 151 13 l 521 1063 l 600 1063 l 965 13 l 1067 13 l 1067 0 l 594 0 l 594 13 l 715 13 l 611 333 l 278 333 l 165 13 l 331 13 l 331 0 l 25 0 l 25 13 m 282 347 l 607 347 l 450 828 "},"Ė":{"ha":871,"x_min":0,"x_max":0,"o":"m 326 1244 b 433 1351 326 1304 374 1351 b 539 1244 492 1351 539 1304 b 433 1139 539 1186 492 1139 b 326 1244 374 1139 326 1186 m 589 365 b 414 532 568 458 493 532 l 364 532 l 364 13 l 511 13 b 817 313 701 13 796 136 l 831 313 l 831 0 l 25 0 l 25 13 l 150 13 l 150 1029 l 25 1029 l 25 1042 l 817 1042 l 817 757 l 803 757 b 525 1029 782 906 688 1029 l 364 1029 l 364 546 l 414 546 b 589 706 493 546 568 613 l 600 706 l 600 365 l 589 365 "},"˙":{"ha":325,"x_min":0,"x_max":0,"o":"m 63 964 b 169 1071 63 1024 110 1071 b 275 964 228 1071 275 1024 b 169 858 275 906 228 858 b 63 964 110 858 63 906 "},"Ũ":{"ha":1003,"x_min":0,"x_max":0,"o":"m 367 1249 b 282 1167 319 1249 282 1218 l 269 1167 b 407 1371 269 1285 318 1371 b 656 1261 518 1371 567 1261 b 740 1343 707 1261 740 1292 l 753 1343 b 629 1139 753 1211 732 1139 b 367 1249 522 1139 465 1249 m 503 1042 l 503 1029 l 364 1029 l 364 333 b 578 3 364 150 399 3 b 836 319 732 3 836 99 l 836 1029 l 711 1029 l 711 1042 l 983 1042 l 983 1029 l 850 1029 l 850 319 b 525 -21 850 90 751 -21 b 150 319 264 -21 150 79 l 150 1029 l 25 1029 l 25 1042 "},"ĵ":{"ha":449,"x_min":0,"x_max":0,"o":"m -4 708 l -11 715 l 156 903 l 274 903 l 440 715 l 433 708 l 214 806 m 344 -17 b 43 -361 344 -199 238 -361 b -169 -197 -83 -361 -169 -289 b -56 -82 -169 -126 -117 -82 b 57 -185 0 -82 57 -115 b -64 -290 57 -251 8 -290 b -131 -240 -103 -290 -126 -265 b 28 -346 -125 -290 -61 -346 b 147 29 174 -346 147 -147 l 150 626 l 25 626 l 25 639 l 344 639 "},"Ť":{"ha":940,"x_min":0,"x_max":0,"o":"m 697 1333 l 704 1326 l 538 1139 l 419 1139 l 253 1326 l 260 1333 l 478 1236 m 364 13 l 364 1029 l 275 1029 b 36 708 126 1029 57 885 l 25 708 l 25 1042 l 919 1042 l 919 708 l 908 708 b 669 1029 888 885 818 1029 l 581 1029 l 581 13 l 733 13 l 733 0 l 211 0 l 211 13 "},"´":{"ha":569,"x_min":0,"x_max":0,"o":"m 83 1000 l 79 1014 l 389 1122 b 493 1049 443 1142 493 1096 b 403 972 493 1001 450 967 "},"ř":{"ha":656,"x_min":0,"x_max":0,"o":"m 553 924 l 560 917 l 393 729 l 275 729 l 108 917 l 115 924 l 333 826 m 117 13 l 117 626 l 24 626 l 24 639 l 311 639 l 311 461 b 492 653 329 569 375 653 b 647 506 569 653 647 594 b 532 386 647 442 606 386 b 415 497 465 386 415 428 b 603 569 415 594 539 639 b 489 639 586 614 535 639 b 311 310 333 639 311 458 l 311 13 l 404 13 l 404 0 l 24 0 l 24 13 "},"Ā":{"ha":1086,"x_min":0,"x_max":0,"o":"m 753 1167 l 753 1153 l 361 1153 l 361 1167 m 151 13 l 521 1063 l 600 1063 l 965 13 l 1067 13 l 1067 0 l 594 0 l 594 13 l 715 13 l 611 333 l 278 333 l 165 13 l 331 13 l 331 0 l 25 0 l 25 13 m 282 347 l 607 347 l 450 828 "},"ą":{"ha":804,"x_min":0,"x_max":0,"o":"m 456 356 l 456 424 b 325 633 456 531 429 633 b 178 588 258 633 201 610 b 324 504 254 613 324 569 b 207 404 324 442 263 404 b 100 501 144 404 100 444 b 361 650 100 590 221 650 b 650 424 590 650 650 550 l 650 72 b 700 21 650 42 667 21 b 793 92 724 21 765 38 l 803 88 b 622 -14 771 19 701 -12 b 581 -162 600 -40 581 -93 b 647 -283 581 -239 607 -283 b 731 -217 686 -283 711 -253 l 739 -221 b 567 -322 718 -260 686 -322 b 394 -203 475 -322 394 -286 b 576 -11 394 -112 485 -49 b 456 108 508 -3 456 31 l 456 153 b 239 -14 431 44 361 -14 b 51 157 129 -14 51 54 b 356 356 51 274 154 356 m 340 50 b 456 251 396 50 456 99 l 456 342 l 404 342 b 263 176 319 342 263 267 b 340 50 263 99 289 50 "},"­":{"ha":500,"x_min":0,"x_max":0,"o":"m 417 389 l 417 375 l 83 375 l 83 389 "},"Ĳ":{"ha":1300,"x_min":0,"x_max":0,"o":"m 178 13 l 178 1029 l 25 1029 l 25 1042 l 558 1042 l 558 1029 l 392 1029 l 392 13 l 558 13 l 558 0 l 25 0 l 25 13 m 1282 1042 l 1282 1029 l 1143 1029 l 1143 236 b 810 -42 1088 104 1013 -42 b 579 146 668 -42 579 42 b 707 278 579 225 638 278 b 826 154 769 278 826 232 b 707 31 826 85 774 31 b 632 53 674 31 643 42 b 806 -28 660 11 721 -28 b 929 264 908 -28 929 69 l 929 1029 l 749 1029 l 749 1042 "},"ţ":{"ha":499,"x_min":0,"x_max":0,"o":"m 276 -222 b 149 -137 276 -149 218 -137 l 246 -8 b 111 161 133 1 111 71 l 111 626 l 10 626 l 10 639 l 111 639 l 111 778 b 306 819 174 778 257 792 l 306 639 l 454 639 l 454 626 l 306 626 l 306 125 b 358 31 306 56 321 31 b 485 146 401 31 457 75 l 496 142 b 272 -10 463 53 385 -10 l 263 -10 l 208 -82 b 431 -194 338 -86 431 -117 b 154 -325 431 -264 364 -325 l 154 -314 b 276 -222 236 -314 276 -274 "},"ﬁ":{"ha":871,"x_min":0,"x_max":0,"o":"m 142 13 l 142 626 l 17 626 l 17 639 l 142 639 l 142 711 b 528 1056 142 914 285 1056 b 753 890 675 1056 753 976 b 647 776 753 819 710 776 b 533 879 592 776 533 813 b 644 986 533 947 585 986 b 719 936 683 986 711 964 b 528 1043 707 992 642 1043 b 331 750 378 1043 331 926 l 331 639 l 750 639 l 750 13 l 847 13 l 847 0 l 17 0 l 17 13 m 331 626 l 331 13 l 556 13 l 556 626 "},"Ľ":{"ha":917,"x_min":0,"x_max":0,"o":"m 589 1015 b 724 1139 589 1082 650 1139 b 863 953 799 1139 863 1075 b 586 692 863 814 753 692 l 586 706 b 844 1003 739 706 868 817 b 711 892 829 943 778 892 b 589 1015 636 892 589 949 m 25 0 l 25 13 l 150 13 l 150 1029 l 25 1029 l 25 1042 l 489 1042 l 489 1029 l 364 1029 l 364 13 l 507 13 b 814 313 711 13 793 136 l 826 313 l 826 0 "},"Ņ":{"ha":1043,"x_min":0,"x_max":0,"o":"m 164 13 l 164 1029 l 25 1029 l 25 1042 l 419 1042 l 864 356 l 864 1029 l 706 1029 l 706 1042 l 1022 1042 l 1022 1029 l 878 1029 l 878 -14 l 856 -14 l 178 1021 l 178 13 l 339 13 l 339 0 l 25 0 l 25 13 m 406 -193 b 540 -69 406 -126 467 -69 b 679 -256 615 -69 679 -133 b 403 -517 679 -394 569 -517 l 403 -503 b 661 -206 556 -503 685 -392 b 528 -317 646 -265 594 -317 b 406 -193 453 -317 406 -260 "},"ĭ":{"ha":444,"x_min":0,"x_max":0,"o":"m 51 971 b 206 882 51 907 131 882 b 360 971 281 882 360 907 l 372 971 b 206 750 372 838 324 750 b 39 971 88 750 39 838 l 51 971 m 125 13 l 125 626 l 28 626 l 28 639 l 319 639 l 319 13 l 417 13 l 417 0 l 28 0 l 28 13 "},"ﬂ":{"ha":933,"x_min":0,"x_max":0,"o":"m 142 13 l 142 626 l 17 626 l 17 639 l 142 639 l 142 711 b 486 1056 142 907 285 1056 b 615 1014 539 1056 583 1040 l 808 1069 l 808 13 l 919 13 l 919 0 l 17 0 l 17 13 m 331 626 l 331 13 l 614 13 l 614 785 b 569 776 600 779 586 776 b 458 879 514 776 458 810 b 567 986 458 949 506 986 b 614 971 586 986 601 979 l 614 996 b 492 1042 588 1022 546 1042 b 331 750 372 1042 331 926 l 331 639 l 521 639 l 521 626 "},"ŭ":{"ha":850,"x_min":0,"x_max":0,"o":"m 228 971 b 382 882 228 907 307 882 b 536 971 457 882 536 907 l 549 971 b 382 750 549 838 500 750 b 215 971 264 750 215 838 l 228 971 m 311 203 b 383 33 311 86 325 33 b 540 329 500 33 540 197 l 540 626 l 450 626 l 450 639 l 735 639 l 735 13 l 828 13 l 828 0 l 540 0 l 540 208 b 314 -14 521 94 464 -14 b 117 196 161 -14 117 75 l 117 626 l 24 626 l 24 639 l 311 639 "},"Č":{"ha":975,"x_min":0,"x_max":0,"o":"m 785 1333 l 792 1326 l 625 1139 l 507 1139 l 340 1326 l 347 1333 l 565 1236 m 919 0 l 911 0 l 799 78 b 558 -14 738 19 658 -14 b 58 521 249 -14 58 211 b 558 1056 58 831 249 1056 b 775 969 644 1056 718 1024 l 897 1042 l 906 1042 l 906 736 l 893 736 b 572 1036 840 911 725 1036 b 303 521 365 1036 303 774 b 572 6 303 268 365 6 b 907 306 758 6 858 142 l 919 306 "},"ĳ":{"ha":829,"x_min":0,"x_max":0,"o":"m 89 938 b 207 1056 89 1004 140 1056 b 325 938 274 1056 325 1004 b 207 819 325 871 274 819 b 89 938 140 819 89 871 m 501 938 b 619 1056 501 1004 553 1056 b 738 938 686 1056 738 1004 b 619 819 738 871 686 819 b 501 938 553 819 501 871 m 124 13 l 124 626 l 31 626 l 31 639 l 318 639 l 318 13 l 411 13 l 411 0 l 31 0 l 31 13 m 728 -17 b 426 -361 728 -199 621 -361 b 214 -197 300 -361 214 -289 b 328 -82 214 -128 267 -82 b 440 -185 383 -82 440 -115 b 319 -290 440 -251 392 -290 b 251 -240 281 -290 256 -265 b 411 -346 257 -290 322 -346 b 531 29 557 -346 531 -147 l 533 626 l 413 626 l 413 639 l 728 639 "},"ů":{"ha":850,"x_min":0,"x_max":0,"o":"m 250 861 b 389 986 250 932 304 986 b 528 861 474 986 528 932 b 389 736 528 790 474 736 b 250 861 304 736 250 790 m 333 861 b 389 749 333 792 347 749 b 444 861 431 749 444 792 b 389 974 444 931 431 974 b 333 861 347 974 333 931 m 311 203 b 383 33 311 86 325 33 b 540 329 500 33 540 197 l 540 626 l 450 626 l 450 639 l 735 639 l 735 13 l 828 13 l 828 0 l 540 0 l 540 208 b 314 -14 521 94 464 -14 b 117 196 161 -14 117 75 l 117 626 l 24 626 l 24 639 l 311 639 "},"Ĵ":{"ha":740,"x_min":0,"x_max":0,"o":"m 226 1111 l 219 1118 l 386 1306 l 504 1306 l 671 1118 l 664 1111 l 444 1208 m 719 1042 l 719 1029 l 581 1029 l 581 236 b 247 -42 525 104 450 -42 b 17 146 106 -42 17 42 b 144 278 17 225 75 278 b 264 154 207 278 264 232 b 144 31 264 85 211 31 b 69 53 111 31 81 42 b 243 -28 97 11 158 -28 b 367 264 346 -28 367 69 l 367 1029 l 186 1029 l 186 1042 "},"Ē":{"ha":871,"x_min":0,"x_max":0,"o":"m 621 1160 l 621 1146 l 229 1146 l 229 1160 m 589 365 b 414 532 568 458 493 532 l 364 532 l 364 13 l 511 13 b 817 313 701 13 796 136 l 831 313 l 831 0 l 25 0 l 25 13 l 150 13 l 150 1029 l 25 1029 l 25 1042 l 817 1042 l 817 757 l 803 757 b 525 1029 782 906 688 1029 l 364 1029 l 364 546 l 414 546 b 589 706 493 546 568 613 l 600 706 l 600 365 l 589 365 "},"ẞ":{"ha":1238,"x_min":0,"x_max":0,"o":"m 146 13 l 146 613 b 733 1056 146 908 403 1056 b 1140 911 946 1056 1092 964 l 861 561 b 1182 281 1106 522 1182 413 b 800 -14 1182 93 1010 -14 b 479 224 582 -14 479 110 b 600 353 479 301 531 353 b 711 236 663 353 711 307 b 593 125 711 171 654 125 b 504 179 549 125 515 156 b 758 6 518 94 617 6 b 956 278 906 6 956 126 b 636 564 956 401 906 564 l 636 576 l 971 993 b 733 1042 926 1015 840 1042 b 368 599 464 1042 368 858 l 368 13 l 493 13 l 493 0 l 21 0 l 21 13 "},"ť":{"ha":689,"x_min":0,"x_max":0,"o":"m 389 1071 b 524 1194 389 1138 450 1194 b 663 1008 599 1194 663 1131 b 386 747 663 869 553 747 l 386 761 b 644 1058 539 761 668 872 b 511 947 629 999 578 947 b 389 1071 436 947 389 1004 m 496 142 b 272 -10 463 53 385 -10 b 111 161 138 -10 111 64 l 111 626 l 10 626 l 10 639 l 111 639 l 111 778 b 306 819 174 778 257 792 l 306 639 l 454 639 l 454 626 l 306 626 l 306 125 b 358 31 306 56 321 31 b 485 146 401 31 457 75 l 496 142 "},"ŏ":{"ha":765,"x_min":0,"x_max":0,"o":"m 236 957 b 390 868 236 893 315 868 b 544 957 465 868 544 893 l 557 957 b 390 736 557 824 508 736 b 224 957 272 736 224 824 l 236 957 m 44 319 b 383 653 44 500 174 653 b 722 319 593 653 722 500 b 383 -14 722 139 593 -14 b 44 319 174 -14 44 139 m 253 319 b 383 -1 253 154 281 -1 b 514 319 486 -1 514 154 b 383 640 514 485 486 640 b 253 319 281 640 253 485 "},"Ļ":{"ha":854,"x_min":0,"x_max":0,"o":"m 25 0 l 25 13 l 150 13 l 150 1029 l 25 1029 l 25 1042 l 489 1042 l 489 1029 l 364 1029 l 364 13 l 507 13 b 814 313 711 13 793 136 l 826 313 l 826 0 m 297 -207 b 432 -83 297 -140 358 -83 b 571 -269 507 -83 571 -147 b 294 -531 571 -408 461 -531 l 294 -517 b 553 -219 447 -517 576 -406 b 419 -331 538 -279 486 -331 b 297 -207 344 -331 297 -274 "},"ş":{"ha":615,"x_min":0,"x_max":0,"o":"m 53 -14 l 53 201 l 67 201 b 319 0 106 82 200 0 b 475 106 404 0 475 35 b 68 451 475 253 68 179 b 283 651 68 561 151 651 b 443 593 349 651 403 628 l 522 653 l 531 653 l 531 458 l 519 458 b 283 638 489 542 408 638 b 158 546 217 638 158 604 b 579 204 158 407 579 465 b 328 -14 579 60 456 -14 b 314 -14 324 -14 319 -14 l 240 -112 b 463 -225 369 -117 463 -147 b 186 -356 463 -294 396 -356 l 186 -344 b 308 -253 268 -344 308 -304 b 181 -168 308 -179 250 -168 l 297 -12 b 143 54 236 -7 185 17 l 64 -14 "},"‽":{"ha":917,"x_min":0,"x_max":0,"o":"m 90 772 b 474 1056 90 900 228 1056 b 861 764 683 1056 861 951 b 485 465 861 589 663 472 b 454 338 467 418 454 374 l 440 338 b 358 721 440 435 374 588 b 357 747 357 731 357 739 b 461 851 357 786 382 851 b 565 747 540 851 565 786 b 564 721 565 739 565 731 b 489 478 554 642 518 556 b 679 778 593 503 679 644 b 442 1032 679 908 593 1032 b 119 819 247 1032 133 907 b 204 868 128 842 158 868 b 304 764 265 868 304 813 b 197 651 304 688 246 651 b 90 772 142 651 90 694 m 318 111 b 443 236 318 181 374 236 b 568 111 513 236 568 181 b 443 -14 568 42 513 -14 b 318 111 374 -14 318 42 "},"ﬃ":{"ha":1292,"x_min":0,"x_max":0,"o":"m 142 13 l 142 626 l 17 626 l 17 639 l 142 639 l 142 642 b 500 986 142 836 292 986 b 643 938 557 986 607 967 b 947 1056 708 1011 813 1056 b 1174 890 1094 1056 1174 976 b 1067 776 1174 819 1129 776 b 954 879 1011 776 954 813 b 1063 986 954 947 1003 986 b 1138 939 1104 986 1131 964 b 947 1042 1122 994 1058 1042 b 750 750 797 1042 750 926 l 750 639 l 1169 639 l 1169 13 l 1267 13 l 1267 0 l 17 0 l 17 13 m 563 711 b 486 811 521 724 486 757 b 592 917 486 881 532 917 b 622 913 603 917 613 915 b 632 925 625 917 629 921 b 506 972 604 951 560 972 b 331 681 397 972 331 857 l 331 639 l 563 639 l 563 711 m 563 13 l 563 626 l 331 626 l 331 13 m 750 626 l 750 13 l 975 13 l 975 626 "},"Į":{"ha":579,"x_min":0,"x_max":0,"o":"m 178 13 l 178 1029 l 25 1029 l 25 1042 l 558 1042 l 558 1029 l 392 1029 l 392 13 l 558 13 l 558 0 l 285 0 b 233 -158 258 -22 233 -81 b 300 -279 233 -235 260 -279 b 383 -212 339 -279 364 -249 l 392 -217 b 219 -318 371 -256 339 -318 b 47 -199 128 -318 47 -282 b 247 0 47 -101 150 -36 l 25 0 l 25 13 "},"Ĥ":{"ha":1100,"x_min":0,"x_max":0,"o":"m 340 1146 l 333 1153 l 500 1340 l 618 1340 l 785 1153 l 778 1146 l 558 1243 m 150 13 l 150 1029 l 25 1029 l 25 1042 l 489 1042 l 489 1029 l 364 1029 l 364 521 l 739 521 l 739 1029 l 614 1029 l 614 1042 l 1081 1042 l 1081 1029 l 956 1029 l 956 13 l 1081 13 l 1081 0 l 614 0 l 614 13 l 739 13 l 739 507 l 364 507 l 364 13 l 489 13 l 489 0 l 25 0 l 25 13 "},"Ū":{"ha":1003,"x_min":0,"x_max":0,"o":"m 703 1156 l 703 1142 l 311 1142 l 311 1156 m 503 1042 l 503 1029 l 364 1029 l 364 333 b 578 3 364 150 399 3 b 836 319 732 3 836 99 l 836 1029 l 711 1029 l 711 1042 l 983 1042 l 983 1029 l 850 1029 l 850 319 b 525 -21 850 90 751 -21 b 150 319 264 -21 150 79 l 150 1029 l 25 1029 l 25 1042 "},"":{"ha":806,"x_min":0,"x_max":0,"o":"m 75 785 b 396 1106 75 963 218 1106 b 717 785 574 1106 717 963 b 396 464 717 607 574 464 b 75 785 218 464 75 607 m 82 785 b 396 471 82 613 224 471 b 710 785 568 471 710 613 b 396 1099 710 957 568 1099 b 82 785 224 1099 82 957 m 533 597 l 529 597 l 489 625 b 403 592 468 604 439 592 b 222 785 292 592 222 674 b 403 978 222 896 292 978 b 481 946 433 978 460 965 l 525 972 l 528 972 l 528 863 l 524 863 b 408 971 504 925 463 971 b 311 785 333 971 311 876 b 408 599 311 693 333 599 b 528 707 475 599 511 649 l 533 707 "},"ł":{"ha":482,"x_min":0,"x_max":0,"o":"m 144 13 l 144 588 l 17 511 l 17 528 l 144 604 l 144 1029 l 24 1029 l 24 1042 l 339 1042 l 339 721 l 482 806 l 482 789 l 339 704 l 339 13 l 460 13 l 460 0 l 24 0 l 24 13 "},"Ś":{"ha":829,"x_min":0,"x_max":0,"o":"m 297 1153 l 293 1167 l 603 1275 b 707 1201 657 1294 707 1249 b 617 1125 707 1154 664 1119 m 58 -14 l 58 313 l 72 313 b 418 -6 124 157 222 -6 b 633 197 551 -6 633 76 b 72 778 633 461 72 375 b 381 1056 72 951 219 1056 b 590 975 465 1056 535 1028 l 708 1056 l 719 1056 l 719 743 l 706 743 b 392 1039 650 926 544 1039 b 219 876 279 1039 219 972 b 775 299 219 640 775 699 b 428 -21 775 104 624 -21 b 192 74 325 -21 250 17 l 69 -14 "},"Ż":{"ha":857,"x_min":0,"x_max":0,"o":"m 326 1244 b 433 1351 326 1304 374 1351 b 539 1244 492 1351 539 1304 b 433 1139 539 1186 492 1139 b 326 1244 374 1139 326 1186 m 794 1042 l 794 1029 l 261 13 l 517 13 b 797 285 707 13 769 108 l 808 285 l 808 0 l 17 0 l 17 13 l 553 1029 l 336 1029 b 58 785 146 1029 86 933 l 44 785 l 44 1042 "},"ŗ":{"ha":656,"x_min":0,"x_max":0,"o":"m 117 13 l 117 626 l 24 626 l 24 639 l 311 639 l 311 461 b 492 653 329 569 375 653 b 647 506 569 653 647 594 b 532 386 647 442 606 386 b 415 497 465 386 415 428 b 603 569 415 594 539 639 b 489 639 586 614 535 639 b 311 310 333 639 311 458 l 311 13 l 404 13 l 404 0 l 24 0 l 24 13 m 89 -207 b 224 -83 89 -140 150 -83 b 363 -269 299 -83 363 -147 b 86 -531 363 -408 253 -531 l 86 -517 b 344 -219 239 -517 368 -406 b 211 -331 329 -279 278 -331 b 89 -207 136 -331 89 -274 "},"ĥ":{"ha":850,"x_min":0,"x_max":0,"o":"m 114 1132 l 107 1139 l 274 1326 l 392 1326 l 558 1139 l 551 1132 l 332 1229 m 117 13 l 117 1029 l 24 1029 l 24 1042 l 311 1042 l 311 433 b 538 653 331 546 388 653 b 735 443 693 653 735 564 l 735 13 l 828 13 l 828 0 l 468 0 l 468 13 l 540 13 l 540 436 b 467 606 540 553 525 606 b 311 310 347 606 311 442 l 311 13 l 383 13 l 383 0 l 24 0 l 24 13 "},"Ġ":{"ha":1051,"x_min":0,"x_max":0,"o":"m 463 1269 b 569 1376 463 1329 510 1376 b 675 1269 628 1376 675 1329 b 569 1164 675 1211 628 1164 b 463 1269 510 1164 463 1211 m 1039 403 l 1039 389 l 969 389 l 969 215 b 553 -14 879 121 779 -14 b 58 521 243 -14 58 197 b 572 1056 58 844 290 1056 b 792 976 653 1056 729 1025 l 925 1042 l 933 1042 l 933 736 l 922 736 b 592 1036 892 883 756 1036 b 303 521 385 1036 303 774 b 553 1 303 268 353 1 b 739 174 669 1 718 115 l 739 389 l 594 389 l 594 403 "},"Ĭ":{"ha":579,"x_min":0,"x_max":0,"o":"m 138 1374 b 292 1285 138 1310 217 1285 b 446 1374 367 1285 446 1310 l 458 1374 b 292 1153 458 1240 410 1153 b 125 1374 174 1153 125 1240 l 138 1374 m 178 13 l 178 1029 l 25 1029 l 25 1042 l 558 1042 l 558 1029 l 392 1029 l 392 13 l 558 13 l 558 0 l 25 0 l 25 13 "},"Ȓ":{"ha":1031,"x_min":0,"x_max":0,"o":"m 344 1139 b 511 1360 344 1272 393 1360 b 678 1139 629 1360 678 1272 l 665 1139 b 511 1228 665 1203 586 1228 b 357 1139 436 1228 357 1203 m 164 13 l 164 1029 l 25 1029 l 25 1042 l 511 1042 b 900 785 742 1042 900 965 b 589 535 900 624 786 550 b 939 11 1040 532 768 11 b 1014 29 968 11 994 21 l 1017 17 b 850 -11 994 4 931 -11 b 475 528 471 -11 817 528 l 378 528 l 378 13 l 517 13 l 517 0 l 25 0 l 25 13 m 378 1029 l 378 542 l 475 542 b 678 785 608 542 678 619 b 475 1029 678 950 608 1029 "},"Ď":{"ha":1051,"x_min":0,"x_max":0,"o":"m 722 1333 l 729 1326 l 563 1139 l 444 1139 l 278 1326 l 285 1333 l 503 1236 m 25 0 l 25 13 l 150 13 l 150 1029 l 25 1029 l 25 1042 l 469 1042 b 997 521 800 1042 997 831 b 469 0 997 211 786 0 m 364 1029 l 364 13 l 469 13 b 753 521 683 13 753 247 b 469 1029 753 794 669 1029 "},"ũ":{"ha":850,"x_min":0,"x_max":0,"o":"m 244 846 b 160 764 197 846 160 815 l 147 764 b 285 968 147 882 196 968 b 533 858 396 968 444 858 b 618 940 585 858 618 889 l 631 940 b 507 736 631 808 610 736 b 244 846 400 736 343 846 m 311 203 b 383 33 311 86 325 33 b 540 329 500 33 540 197 l 540 626 l 450 626 l 450 639 l 735 639 l 735 13 l 828 13 l 828 0 l 540 0 l 540 208 b 314 -14 521 94 464 -14 b 117 196 161 -14 117 75 l 117 626 l 24 626 l 24 639 l 311 639 "},"ņ":{"ha":850,"x_min":0,"x_max":0,"o":"m 117 13 l 117 626 l 24 626 l 24 639 l 311 639 l 311 431 b 538 653 331 544 388 653 b 735 443 690 653 735 564 l 735 13 l 828 13 l 828 0 l 468 0 l 468 13 l 540 13 l 540 436 b 467 606 540 553 525 606 b 311 310 350 606 311 442 l 311 13 l 383 13 l 383 0 l 24 0 l 24 13 m 301 -207 b 436 -83 301 -140 363 -83 b 575 -269 511 -83 575 -147 b 299 -531 575 -408 465 -531 l 299 -517 b 557 -219 451 -517 581 -406 b 424 -331 542 -279 490 -331 b 301 -207 349 -331 301 -274 "},"Ń":{"ha":1043,"x_min":0,"x_max":0,"o":"m 403 1153 l 399 1167 l 708 1275 b 813 1201 763 1294 813 1249 b 722 1125 813 1154 769 1119 m 164 13 l 164 1029 l 25 1029 l 25 1042 l 419 1042 l 864 356 l 864 1029 l 706 1029 l 706 1042 l 1022 1042 l 1022 1029 l 878 1029 l 878 -14 l 856 -14 l 178 1021 l 178 13 l 339 13 l 339 0 l 25 0 l 25 13 "},"Ę":{"ha":871,"x_min":0,"x_max":0,"o":"m 589 365 b 414 532 568 458 493 532 l 364 532 l 364 13 l 511 13 b 817 313 701 13 796 136 l 831 313 l 831 0 l 682 0 b 628 -160 654 -21 628 -79 b 694 -281 628 -236 654 -281 b 778 -214 733 -281 758 -250 l 786 -218 b 614 -319 765 -257 733 -319 b 442 -200 522 -319 442 -283 b 644 0 442 -101 547 -35 l 25 0 l 25 13 l 150 13 l 150 1029 l 25 1029 l 25 1042 l 817 1042 l 817 757 l 803 757 b 525 1029 782 906 688 1029 l 364 1029 l 364 546 l 414 546 b 589 706 493 546 568 613 l 600 706 l 600 365 l 589 365 "},"ˇ":{"ha":590,"x_min":0,"x_max":0,"o":"m 514 1090 l 521 1083 l 354 896 l 236 896 l 69 1083 l 76 1090 l 294 993 "},"ȓ":{"ha":656,"x_min":0,"x_max":0,"o":"m 181 736 b 347 957 181 869 229 957 b 514 736 465 957 514 869 l 501 736 b 347 825 501 800 422 825 b 193 736 272 825 193 800 m 117 13 l 117 626 l 24 626 l 24 639 l 311 639 l 311 461 b 492 653 329 569 375 653 b 647 506 569 653 647 594 b 532 386 647 442 606 386 b 415 497 465 386 415 428 b 603 569 415 594 539 639 b 489 639 586 614 535 639 b 311 310 333 639 311 458 l 311 13 l 404 13 l 404 0 l 24 0 l 24 13 "},"²":{"ha":653,"x_min":0,"x_max":0,"o":"m 139 635 l 139 718 l 315 861 b 425 1076 388 919 425 986 b 304 1244 425 1179 382 1244 b 157 1093 221 1244 157 1178 b 228 1144 167 1121 193 1144 b 304 1074 271 1144 304 1115 b 222 996 304 1028 264 996 b 147 1092 181 996 147 1028 b 356 1268 147 1190 225 1268 b 558 1110 486 1268 558 1197 b 408 921 558 1014 469 968 l 213 760 l 569 760 l 569 822 l 576 822 l 576 635 "},"İ":{"ha":579,"x_min":0,"x_max":0,"o":"m 182 1269 b 289 1376 182 1329 229 1376 b 394 1269 347 1376 394 1329 b 289 1164 394 1211 347 1164 b 182 1269 229 1164 182 1211 m 178 13 l 178 1029 l 25 1029 l 25 1042 l 558 1042 l 558 1029 l 392 1029 l 392 13 l 558 13 l 558 0 l 25 0 l 25 13 "},"‒":{"ha":618,"x_min":0,"x_max":0,"o":"m 535 389 l 535 375 l 83 375 l 83 389 "},"ū":{"ha":850,"x_min":0,"x_max":0,"o":"m 582 753 l 582 739 l 190 739 l 190 753 m 311 203 b 383 33 311 86 325 33 b 540 329 500 33 540 197 l 540 626 l 450 626 l 450 639 l 735 639 l 735 13 l 828 13 l 828 0 l 540 0 l 540 208 b 314 -14 521 94 464 -14 b 117 196 161 -14 117 75 l 117 626 l 24 626 l 24 639 l 311 639 "},"Đ":{"ha":1051,"x_min":0,"x_max":0,"o":"m 25 0 l 25 13 l 150 13 l 150 500 l 25 500 l 25 514 l 150 514 l 150 1029 l 25 1029 l 25 1042 l 469 1042 b 997 521 800 1042 997 831 b 469 0 997 211 786 0 m 364 500 l 364 13 l 469 13 b 753 521 683 13 753 247 b 469 1029 753 794 669 1029 l 364 1029 l 364 514 l 507 514 l 507 500 "},"Ċ":{"ha":975,"x_min":0,"x_max":0,"o":"m 463 1269 b 569 1376 463 1329 510 1376 b 675 1269 628 1376 675 1329 b 569 1164 675 1211 628 1164 b 463 1269 510 1164 463 1211 m 919 0 l 911 0 l 799 78 b 558 -14 738 19 658 -14 b 58 521 249 -14 58 211 b 558 1056 58 831 249 1056 b 775 969 644 1056 718 1024 l 897 1042 l 906 1042 l 906 736 l 893 736 b 572 1036 840 911 725 1036 b 303 521 365 1036 303 774 b 572 6 303 268 365 6 b 907 306 758 6 858 142 l 919 306 "},"œ":{"ha":1240,"x_min":0,"x_max":0,"o":"m 44 319 b 383 653 44 500 174 653 b 639 546 493 653 581 611 b 901 653 700 615 792 653 b 1207 356 1108 653 1207 507 l 781 356 b 781 333 781 349 781 340 b 942 6 781 154 811 6 b 1196 199 1068 6 1161 88 l 1208 199 b 907 -14 1172 78 1075 -14 b 640 94 796 -14 701 24 b 383 -14 582 29 494 -14 b 44 319 174 -14 44 139 m 253 319 b 383 -1 253 154 281 -1 b 514 319 486 -1 514 154 b 383 640 514 485 486 640 b 253 319 281 640 253 485 m 901 640 b 781 369 813 640 785 514 l 1001 369 b 901 640 1001 486 990 640 "},"‾":{"ha":500,"x_min":0,"x_max":0,"o":"m 507 1104 l 507 1090 l -7 1090 l -7 1104 "},"Ŷ":{"ha":1024,"x_min":0,"x_max":0,"o":"m 301 1146 l 294 1153 l 461 1340 l 579 1340 l 746 1153 l 739 1146 l 519 1243 m 419 13 l 419 500 l 113 1029 l 17 1029 l 17 1042 l 503 1042 l 503 1029 l 363 1029 l 628 550 l 878 1029 l 719 1029 l 719 1042 l 1011 1042 l 1011 1029 l 894 1029 l 636 532 l 636 13 l 775 13 l 775 0 l 294 0 l 294 13 "},"ē":{"ha":726,"x_min":0,"x_max":0,"o":"m 581 757 l 581 743 l 189 743 l 189 757 m 688 199 b 386 -14 651 78 554 -14 b 44 319 190 -14 44 104 b 381 653 44 535 185 653 b 686 356 588 653 686 507 l 260 356 b 260 333 260 349 260 340 b 421 6 260 154 290 6 b 675 199 547 6 640 88 l 688 199 m 381 640 b 260 369 292 640 264 514 l 481 369 b 381 640 481 486 469 640 "},"Ÿ":{"ha":1024,"x_min":0,"x_max":0,"o":"m 604 1246 b 711 1351 604 1304 651 1351 b 817 1246 769 1351 817 1304 b 711 1139 817 1186 769 1139 b 604 1246 651 1139 604 1186 m 306 1246 b 413 1351 306 1304 353 1351 b 518 1246 471 1351 518 1304 b 413 1139 518 1186 471 1139 b 306 1246 353 1139 306 1186 m 419 13 l 419 500 l 113 1029 l 17 1029 l 17 1042 l 503 1042 l 503 1029 l 363 1029 l 628 550 l 878 1029 l 719 1029 l 719 1042 l 1011 1042 l 1011 1029 l 894 1029 l 636 532 l 636 13 l 775 13 l 775 0 l 294 0 l 294 13 "},"№":{"ha":1592,"x_min":0,"x_max":0,"o":"m 1042 792 b 1297 1056 1042 965 1150 1056 b 1553 792 1444 1056 1553 965 b 1297 528 1553 618 1444 528 b 1042 792 1150 528 1042 618 m 1201 792 b 1297 540 1201 633 1229 540 b 1393 792 1365 540 1393 633 b 1297 1043 1393 950 1365 1043 b 1201 792 1229 1043 1201 950 m 164 13 l 164 1029 l 25 1029 l 25 1042 l 419 1042 l 864 356 l 864 1029 l 706 1029 l 706 1042 l 1022 1042 l 1022 1029 l 878 1029 l 878 -14 l 856 -14 l 178 1021 l 178 13 l 339 13 l 339 0 l 25 0 l 25 13 m 1464 444 l 1464 431 l 1131 431 l 1131 444 "},"ň":{"ha":850,"x_min":0,"x_max":0,"o":"m 690 924 l 697 917 l 531 729 l 413 729 l 246 917 l 253 924 l 471 826 m 117 13 l 117 626 l 24 626 l 24 639 l 311 639 l 311 431 b 538 653 331 544 388 653 b 735 443 690 653 735 564 l 735 13 l 828 13 l 828 0 l 468 0 l 468 13 l 540 13 l 540 436 b 467 606 540 553 525 606 b 311 310 350 606 311 442 l 311 13 l 383 13 l 383 0 l 24 0 l 24 13 "},"ź":{"ha":657,"x_min":0,"x_max":0,"o":"m 175 750 l 171 764 l 481 872 b 585 799 535 892 585 846 b 494 722 585 751 542 717 m 282 626 b 68 400 151 626 89 540 l 56 400 l 56 639 l 613 639 l 613 626 l 236 13 l 376 13 b 622 256 539 13 601 83 l 635 256 l 635 0 l 17 0 l 17 13 l 392 626 l 282 626 "},"Ĕ":{"ha":871,"x_min":0,"x_max":0,"o":"m 274 1360 b 428 1271 274 1296 353 1271 b 582 1360 503 1271 582 1296 l 594 1360 b 428 1139 594 1226 546 1139 b 261 1360 310 1139 261 1226 l 274 1360 m 589 365 b 414 532 568 458 493 532 l 364 532 l 364 13 l 511 13 b 817 313 701 13 796 136 l 831 313 l 831 0 l 25 0 l 25 13 l 150 13 l 150 1029 l 25 1029 l 25 1042 l 817 1042 l 817 757 l 803 757 b 525 1029 782 906 688 1029 l 364 1029 l 364 546 l 414 546 b 589 706 493 546 568 613 l 600 706 l 600 365 l 589 365 "},"¹":{"ha":736,"x_min":0,"x_max":0,"o":"m 299 640 l 299 1251 l 204 1251 l 204 1258 l 428 1258 l 428 640 l 519 640 l 519 633 l 190 633 l 190 640 "},"ŵ":{"ha":1136,"x_min":0,"x_max":0,"o":"m 401 743 l 394 750 l 561 938 l 679 938 l 846 750 l 839 743 l 619 840 m 614 653 l 717 653 l 851 208 l 990 626 l 847 626 l 847 639 l 1136 639 l 1136 626 l 1007 626 l 792 -14 l 728 -14 l 554 464 l 361 -14 l 297 -14 l 88 626 l -3 626 l -3 639 l 414 639 l 414 626 l 296 626 l 422 179 "},"Ğ":{"ha":1051,"x_min":0,"x_max":0,"o":"m 426 1360 b 581 1271 426 1296 506 1271 b 735 1360 656 1271 735 1296 l 747 1360 b 581 1139 747 1226 699 1139 b 414 1360 463 1139 414 1226 l 426 1360 m 1039 403 l 1039 389 l 969 389 l 969 215 b 553 -14 879 121 779 -14 b 58 521 243 -14 58 197 b 572 1056 58 844 290 1056 b 792 976 653 1056 729 1025 l 925 1042 l 933 1042 l 933 736 l 922 736 b 592 1036 892 883 756 1036 b 303 521 385 1036 303 774 b 553 1 303 268 353 1 b 739 174 669 1 718 115 l 739 389 l 594 389 l 594 403 "},"Ī":{"ha":579,"x_min":0,"x_max":0,"o":"m 494 1160 l 494 1146 l 103 1146 l 103 1160 m 178 13 l 178 1029 l 25 1029 l 25 1042 l 558 1042 l 558 1029 l 392 1029 l 392 13 l 558 13 l 558 0 l 25 0 l 25 13 "},"ĺ":{"ha":482,"x_min":0,"x_max":0,"o":"m 44 1139 l 40 1153 l 350 1261 b 454 1188 404 1281 454 1235 b 364 1111 454 1140 411 1106 m 144 13 l 144 1029 l 24 1029 l 24 1042 l 339 1042 l 339 13 l 460 13 l 460 0 l 24 0 l 24 13 "},"˚":{"ha":444,"x_min":0,"x_max":0,"o":"m 83 944 b 222 1069 83 1015 138 1069 b 361 944 307 1069 361 1015 b 222 819 361 874 307 819 b 83 944 138 819 83 874 m 167 944 b 222 832 167 875 181 832 b 278 944 264 832 278 875 b 222 1057 278 1014 264 1057 b 167 944 181 1057 167 1014 "},"ﬄ":{"ha":1375,"x_min":0,"x_max":0,"o":"m 142 13 l 142 626 l 17 626 l 17 639 l 142 639 l 142 642 b 500 986 142 836 292 986 b 650 932 561 986 614 964 b 919 1056 711 1008 806 1056 b 1050 1014 974 1056 1017 1040 l 1243 1069 l 1243 13 l 1354 13 l 1354 0 l 17 0 l 17 13 m 764 626 l 764 13 l 1049 13 l 1049 785 b 1004 776 1035 779 1021 776 b 892 879 949 776 892 810 b 1000 986 892 949 939 986 b 1049 972 1021 986 1036 979 l 1049 996 b 926 1043 1021 1024 978 1043 b 764 750 807 1043 764 926 l 764 639 l 956 639 l 956 626 m 331 639 l 576 639 l 576 708 b 486 811 529 717 486 750 b 592 917 486 881 532 917 b 632 907 607 917 621 913 b 640 918 635 911 638 915 b 506 972 611 947 563 972 b 331 681 397 972 331 857 m 576 13 l 576 626 l 331 626 l 331 13 "},"Ų":{"ha":1003,"x_min":0,"x_max":0,"o":"m 688 -235 b 515 -336 667 -274 635 -336 b 343 -217 424 -336 343 -300 b 536 -21 343 -122 442 -57 b 525 -21 532 -21 529 -21 b 150 319 264 -21 150 79 l 150 1029 l 25 1029 l 25 1042 l 503 1042 l 503 1029 l 364 1029 l 364 333 b 578 3 364 150 399 3 b 836 319 732 3 836 99 l 836 1029 l 711 1029 l 711 1042 l 983 1042 l 983 1029 l 850 1029 l 850 319 b 581 -18 850 110 768 -1 b 529 -176 554 -40 529 -99 b 596 -297 529 -253 556 -297 b 679 -231 635 -297 660 -267 l 688 -235 "},"ĕ":{"ha":726,"x_min":0,"x_max":0,"o":"m 235 957 b 389 868 235 893 314 868 b 543 957 464 868 543 893 l 556 957 b 389 736 556 824 507 736 b 222 957 271 736 222 824 l 235 957 m 688 199 b 386 -14 651 78 554 -14 b 44 319 190 -14 44 104 b 381 653 44 535 185 653 b 686 356 588 653 686 507 l 260 356 b 260 333 260 349 260 340 b 421 6 260 154 290 6 b 675 199 547 6 640 88 l 688 199 m 381 640 b 260 369 292 640 264 514 l 481 369 b 381 640 481 486 469 640 "},"ď":{"ha":976,"x_min":0,"x_max":0,"o":"m 819 1001 b 954 1125 819 1068 881 1125 b 1093 939 1029 1125 1093 1061 b 817 678 1093 800 983 678 l 817 692 b 1075 989 969 692 1099 803 b 942 878 1060 929 1008 878 b 819 1001 867 878 819 935 m 843 0 l 556 0 l 556 203 b 339 -14 531 64 456 -14 b 44 319 188 -14 44 111 b 339 651 44 528 188 651 b 556 436 456 651 531 575 l 556 1029 l 463 1029 l 463 1042 l 750 1042 l 750 13 l 843 13 m 556 319 b 385 625 556 528 467 625 b 267 319 303 625 267 522 b 388 17 267 117 306 17 b 556 319 469 17 556 111 "},"€":{"ha":1007,"x_min":0,"x_max":0,"o":"m 161 410 b 153 521 156 444 153 482 b 158 604 153 549 154 576 l 42 604 l 42 618 l 160 618 b 638 1056 196 865 372 1056 b 944 842 828 1056 944 935 b 831 721 944 764 893 721 b 717 833 775 721 717 757 b 831 944 717 903 769 944 b 904 910 867 944 894 924 b 665 1039 876 965 790 1039 b 406 618 490 1039 419 847 l 653 618 l 653 604 l 406 604 b 403 521 403 576 403 549 b 407 410 403 482 404 446 l 653 410 l 653 396 l 408 396 b 639 8 428 165 504 8 b 914 247 775 8 879 119 l 928 247 b 601 -14 892 113 783 -14 b 164 396 390 -14 210 146 l 42 396 l 42 410 "},"ĩ":{"ha":444,"x_min":0,"x_max":0,"o":"m 67 846 b -18 764 19 846 -18 815 l -31 764 b 107 968 -31 882 18 968 b 356 858 218 968 267 858 b 440 940 407 858 440 889 l 453 940 b 329 736 453 808 432 736 b 67 846 222 736 165 846 m 125 13 l 125 626 l 28 626 l 28 639 l 319 639 l 319 13 l 417 13 l 417 0 l 28 0 l 28 13 "},"Ĉ":{"ha":975,"x_min":0,"x_max":0,"o":"m 347 1111 l 340 1118 l 507 1306 l 625 1306 l 792 1118 l 785 1111 l 565 1208 m 919 0 l 911 0 l 799 78 b 558 -14 738 19 658 -14 b 58 521 249 -14 58 211 b 558 1056 58 831 249 1056 b 775 969 644 1056 718 1024 l 897 1042 l 906 1042 l 906 736 l 893 736 b 572 1036 840 911 725 1036 b 303 521 365 1036 303 774 b 572 6 303 268 365 6 b 907 306 758 6 858 142 l 919 306 "},"Œ":{"ha":1378,"x_min":0,"x_max":0,"o":"m 1096 365 b 921 532 1075 458 1000 532 l 871 532 l 871 13 l 1018 13 b 1324 313 1208 13 1303 136 l 1338 313 l 1338 0 l 532 0 l 531 0 b 56 521 249 0 56 211 b 531 1042 56 831 249 1042 l 532 1042 l 1324 1042 l 1324 757 l 1310 757 b 1032 1029 1289 906 1194 1029 l 871 1029 l 871 546 l 921 546 b 1096 706 1000 546 1075 613 l 1107 706 l 1107 365 l 1096 365 m 299 521 b 558 13 299 247 365 13 l 657 13 l 657 1029 l 558 1029 b 299 521 365 1029 299 794 "},"³":{"ha":625,"x_min":0,"x_max":0,"o":"m 533 806 b 304 626 533 693 429 626 b 111 769 172 626 111 700 b 183 846 111 815 142 846 b 250 776 221 846 250 819 b 179 710 250 738 217 710 b 131 735 154 710 139 721 b 283 640 142 690 193 640 b 399 806 375 640 399 715 b 256 969 399 879 375 969 l 256 976 b 374 1128 367 976 374 1069 b 292 1254 374 1193 350 1254 b 164 1185 235 1254 181 1222 b 208 1204 175 1200 192 1204 b 272 1140 242 1204 272 1179 b 204 1071 272 1096 238 1071 b 136 1139 167 1071 136 1094 b 308 1267 136 1211 222 1267 b 508 1124 417 1267 508 1215 b 313 972 508 1049 467 985 b 533 806 476 960 533 892 "},"ŉ":{"ha":1042,"x_min":0,"x_max":0,"o":"m 14 971 b 149 1094 14 1038 75 1094 b 288 908 224 1094 288 1031 b 11 647 288 769 178 647 l 11 661 b 269 958 164 661 293 772 b 136 847 254 899 203 847 b 14 971 61 847 14 904 m 304 13 l 304 626 l 211 626 l 211 639 l 499 639 l 499 431 b 725 653 518 544 575 653 b 922 443 878 653 922 564 l 922 13 l 1015 13 l 1015 0 l 656 0 l 656 13 l 728 13 l 728 436 b 654 606 728 553 713 606 b 499 310 538 606 499 442 l 499 13 l 571 13 l 571 0 l 211 0 l 211 13 "},"Ů":{"ha":1003,"x_min":0,"x_max":0,"o":"m 372 1264 b 511 1389 372 1335 426 1389 b 650 1264 596 1389 650 1335 b 511 1139 650 1193 596 1139 b 372 1264 426 1139 372 1193 m 456 1264 b 511 1151 456 1194 469 1151 b 567 1264 553 1151 567 1194 b 511 1376 567 1333 553 1376 b 456 1264 469 1376 456 1333 m 503 1042 l 503 1029 l 364 1029 l 364 333 b 578 3 364 150 399 3 b 836 319 732 3 836 99 l 836 1029 l 711 1029 l 711 1042 l 983 1042 l 983 1029 l 850 1029 l 850 319 b 525 -21 850 90 751 -21 b 150 319 264 -21 150 79 l 150 1029 l 25 1029 l 25 1042 "},"ś":{"ha":615,"x_min":0,"x_max":0,"o":"m 113 792 l 108 806 l 418 914 b 522 840 472 933 522 888 b 432 764 522 793 479 758 m 53 -14 l 53 201 l 67 201 b 319 0 106 82 200 0 b 475 106 404 0 475 35 b 68 451 475 253 68 179 b 283 651 68 561 151 651 b 443 593 349 651 403 628 l 522 653 l 531 653 l 531 458 l 519 458 b 283 638 489 542 408 638 b 158 546 217 638 158 604 b 579 204 158 407 579 465 b 328 -14 579 60 456 -14 b 143 54 254 -14 192 11 l 64 -14 "},"ĸ":{"ha":903,"x_min":0,"x_max":0,"o":"m 150 13 l 150 626 l 25 626 l 25 639 l 344 639 l 344 397 l 665 626 l 496 626 l 496 639 l 806 639 l 806 626 l 686 626 l 464 461 l 811 13 l 874 13 l 874 0 l 482 0 l 482 13 l 571 13 l 344 317 l 344 13 l 421 13 l 421 0 l 25 0 l 25 13 "},"‱":{"ha":2785,"x_min":0,"x_max":0,"o":"m 49 750 b 354 1056 49 949 197 1056 b 660 750 511 1056 660 949 b 354 444 660 551 483 444 b 49 750 197 444 49 551 m 264 750 b 354 457 264 565 286 457 b 444 750 422 457 444 565 b 354 1043 444 935 422 1043 b 264 750 286 1043 264 935 m 1076 1042 l 356 0 l 340 0 l 1061 1042 m 2125 292 b 2431 597 2125 490 2274 597 b 2736 292 2588 597 2736 490 b 2431 -14 2736 93 2560 -14 b 2125 292 2274 -14 2125 93 m 1438 292 b 1743 597 1438 490 1586 597 b 2049 292 1900 597 2049 490 b 1743 -14 2049 93 1872 -14 b 1438 292 1586 -14 1438 93 m 757 292 b 1063 597 757 490 906 597 b 1368 292 1219 597 1368 490 b 1063 -14 1368 93 1192 -14 b 757 292 906 -14 757 93 m 2340 292 b 2431 -1 2340 107 2363 -1 b 2521 292 2499 -1 2521 107 b 2431 585 2521 476 2499 585 b 2340 292 2363 585 2340 476 m 1653 292 b 1743 -1 1653 107 1675 -1 b 1833 292 1811 -1 1833 107 b 1743 585 1833 476 1811 585 b 1653 292 1675 585 1653 476 m 972 292 b 1063 -1 972 107 994 -1 b 1153 292 1131 -1 1153 107 b 1063 585 1153 476 1131 585 b 972 292 994 585 972 476 "},"ľ":{"ha":743,"x_min":0,"x_max":0,"o":"m 433 1001 b 568 1125 433 1068 494 1125 b 707 939 643 1125 707 1061 b 431 678 707 800 597 678 l 431 692 b 689 989 583 692 713 803 b 556 878 674 929 622 878 b 433 1001 481 878 433 935 m 144 13 l 144 1029 l 24 1029 l 24 1042 l 339 1042 l 339 13 l 460 13 l 460 0 l 24 0 l 24 13 "},"č":{"ha":714,"x_min":0,"x_max":0,"o":"m 624 931 l 631 924 l 464 736 l 346 736 l 179 924 l 186 931 l 404 833 m 608 538 b 421 638 588 590 507 638 b 274 319 290 638 274 450 b 425 8 274 161 306 8 b 646 199 536 8 610 86 l 660 199 b 389 -14 624 78 543 -14 b 44 319 186 -14 44 97 b 397 653 44 514 167 653 b 658 464 546 653 658 571 b 549 353 658 393 611 353 b 435 461 493 353 435 381 b 539 567 435 531 492 567 b 608 538 575 567 597 551 "},"ć":{"ha":714,"x_min":0,"x_max":0,"o":"m 192 786 l 188 800 l 497 908 b 601 835 551 928 601 882 b 511 758 601 788 558 753 m 608 538 b 421 638 588 590 507 638 b 274 319 290 638 274 450 b 425 8 274 161 306 8 b 646 199 536 8 610 86 l 660 199 b 389 -14 624 78 543 -14 b 44 319 186 -14 44 97 b 397 653 44 514 167 653 b 658 464 546 653 658 571 b 549 353 658 393 611 353 b 435 461 493 353 435 381 b 539 567 435 531 492 567 b 608 538 575 567 597 551 "},"į":{"ha":431,"x_min":0,"x_max":0,"o":"m 89 938 b 207 1056 89 1004 140 1056 b 325 938 274 1056 325 1004 b 207 819 325 871 274 819 b 89 938 140 819 89 871 m 124 13 l 124 626 l 31 626 l 31 639 l 318 639 l 318 13 l 411 13 l 411 0 l 224 0 b 172 -158 197 -22 172 -81 b 239 -279 172 -235 199 -279 b 322 -212 278 -279 303 -249 l 331 -217 b 158 -318 310 -256 278 -318 b -14 -199 67 -318 -14 -282 b 186 0 -14 -101 89 -36 l 31 0 l 31 13 "},"˛":{"ha":764,"x_min":0,"x_max":0,"o":"m 556 -171 b 383 -272 535 -210 503 -272 b 211 -153 292 -272 211 -236 b 453 60 211 -42 347 29 l 457 51 b 397 -112 428 35 397 -26 b 464 -233 397 -189 424 -233 b 547 -167 503 -233 528 -203 l 556 -171 "},"ĉ":{"ha":714,"x_min":0,"x_max":0,"o":"m 186 708 l 179 715 l 346 903 l 464 903 l 631 715 l 624 708 l 404 806 m 608 538 b 421 638 588 590 507 638 b 274 319 290 638 274 450 b 425 8 274 161 306 8 b 646 199 536 8 610 86 l 660 199 b 389 -14 624 78 543 -14 b 44 319 186 -14 44 97 b 397 653 44 514 167 653 b 658 464 546 653 658 571 b 549 353 658 393 611 353 b 435 461 493 353 435 381 b 539 567 435 531 492 567 b 608 538 575 567 597 551 "},"π":{"ha":876,"x_min":0,"x_max":0,"o":"m 172 -14 b 56 81 101 -14 56 25 b 274 388 56 210 274 149 l 274 444 l 69 444 l 69 340 l 57 340 l 57 639 l 800 639 l 800 444 l 675 444 l 675 117 b 728 64 675 89 690 64 b 819 149 760 64 792 88 l 828 143 b 643 -14 796 46 742 -14 b 481 115 550 -14 481 26 l 481 444 l 351 444 l 351 338 b 172 -14 351 118 288 -14 "},"“":{"ha":729,"x_min":0,"x_max":0,"o":"m 674 757 b 539 633 674 690 613 633 b 400 819 464 633 400 697 b 676 1081 400 958 510 1081 l 676 1067 b 418 769 524 1067 394 956 b 551 881 433 829 485 881 b 674 757 626 881 674 824 m 326 757 b 192 633 326 690 265 633 b 53 819 117 633 53 697 b 329 1081 53 958 163 1081 l 329 1067 b 71 769 176 1067 47 956 b 204 881 86 829 138 881 b 326 757 279 881 326 824 "},"":{"ha":901,"x_min":0,"x_max":0,"o":"m 461 681 l 461 1047 l 422 1047 l 422 1051 l 540 1051 l 639 783 l 733 1051 l 847 1051 l 847 1047 l 813 1047 l 813 681 l 847 681 l 847 676 l 694 676 l 694 681 l 735 681 l 735 1043 l 606 671 l 601 671 l 465 1040 l 465 681 l 503 681 l 503 676 l 425 676 l 425 681 m 179 681 l 179 1047 l 147 1047 b 61 932 94 1047 69 994 l 57 932 l 57 1051 l 379 1051 l 379 932 l 375 932 b 290 1047 368 994 343 1047 l 257 1047 l 257 681 l 313 681 l 313 676 l 125 676 l 125 681 "},"Ș":{"ha":829,"x_min":0,"x_max":0,"o":"m 58 -14 l 58 313 l 72 313 b 418 -6 124 157 222 -6 b 633 197 551 -6 633 76 b 72 778 633 461 72 375 b 381 1056 72 951 219 1056 b 590 975 465 1056 535 1028 l 708 1056 l 719 1056 l 719 743 l 706 743 b 392 1039 650 926 544 1039 b 219 876 279 1039 219 972 b 775 299 219 640 775 699 b 428 -21 775 104 624 -21 b 192 74 325 -21 250 17 l 69 -14 m 300 -228 b 435 -104 300 -161 361 -104 b 574 -290 510 -104 574 -168 b 297 -551 574 -429 464 -551 l 297 -537 b 556 -240 450 -537 579 -426 b 422 -351 540 -300 489 -351 b 300 -228 347 -351 300 -294 "},"Ć":{"ha":975,"x_min":0,"x_max":0,"o":"m 358 1167 l 354 1181 l 664 1289 b 768 1215 718 1308 768 1263 b 678 1139 768 1168 725 1133 m 919 0 l 911 0 l 799 78 b 558 -14 738 19 658 -14 b 58 521 249 -14 58 211 b 558 1056 58 831 249 1056 b 775 969 644 1056 718 1024 l 897 1042 l 906 1042 l 906 736 l 893 736 b 572 1036 840 911 725 1036 b 303 521 365 1036 303 774 b 572 6 303 268 365 6 b 907 306 758 6 858 142 l 919 306 "},"ﬀ":{"ha":972,"x_min":0,"x_max":0,"o":"m 142 13 l 142 626 l 17 626 l 17 639 l 142 639 l 142 642 b 500 986 142 838 292 986 b 649 933 560 986 613 965 b 913 1056 708 1008 800 1056 b 1104 897 1032 1056 1104 976 b 997 783 1104 826 1060 783 b 885 886 942 783 885 817 b 994 994 885 956 935 994 b 1072 947 1031 994 1064 972 b 919 1042 1061 990 1008 1042 b 764 750 808 1042 764 926 l 764 639 l 956 639 l 956 626 l 764 626 l 764 13 l 928 13 l 928 0 l 17 0 l 17 13 m 331 639 l 576 639 l 576 708 b 486 811 529 717 486 750 b 592 917 486 881 532 917 b 631 907 606 917 619 913 b 639 919 633 911 636 915 b 506 972 608 949 560 972 b 331 681 397 972 331 857 m 576 13 l 576 626 l 331 626 l 331 13 "},"ŀ":{"ha":706,"x_min":0,"x_max":0,"o":"m 144 13 l 144 1029 l 24 1029 l 24 1042 l 339 1042 l 339 13 l 460 13 l 460 0 l 24 0 l 24 13 m 417 597 b 542 722 417 667 472 722 b 667 597 611 722 667 667 b 542 472 667 528 611 472 b 417 597 472 472 417 528 "},"ˆ":{"ha":590,"x_min":0,"x_max":0,"o":"m 76 875 l 69 882 l 236 1069 l 354 1069 l 521 882 l 514 875 l 294 972 "},"¨":{"ha":632,"x_min":0,"x_max":0,"o":"m 365 1076 b 472 1182 365 1135 413 1182 b 578 1076 531 1182 578 1135 b 472 969 578 1017 531 969 b 365 1076 413 969 365 1017 m 67 1076 b 174 1182 67 1135 114 1182 b 279 1076 232 1182 279 1135 b 174 969 279 1017 232 969 b 67 1076 114 969 67 1017 "},"ȷ":{"ha":449,"x_min":0,"x_max":0,"o":"m 344 -17 b 43 -361 344 -199 238 -361 b -169 -197 -83 -361 -169 -289 b -56 -82 -169 -126 -117 -82 b 57 -185 0 -82 57 -115 b -64 -290 57 -251 8 -290 b -131 -240 -103 -290 -126 -265 b 28 -346 -125 -290 -61 -346 b 147 29 174 -346 147 -147 l 150 626 l 25 626 l 25 639 l 344 639 "},"ŝ":{"ha":615,"x_min":0,"x_max":0,"o":"m 124 708 l 117 715 l 283 903 l 401 903 l 568 715 l 561 708 l 342 806 m 53 -14 l 53 201 l 67 201 b 319 0 106 82 200 0 b 475 106 404 0 475 35 b 68 451 475 253 68 179 b 283 651 68 561 151 651 b 443 593 349 651 403 628 l 522 653 l 531 653 l 531 458 l 519 458 b 283 638 489 542 408 638 b 158 546 217 638 158 604 b 579 204 158 407 579 465 b 328 -14 579 60 456 -14 b 143 54 254 -14 192 11 l 64 -14 "},"‐":{"ha":500,"x_min":0,"x_max":0,"o":"m 417 389 l 417 375 l 83 375 l 83 389 "},"ī":{"ha":444,"x_min":0,"x_max":0,"o":"m 369 757 l 369 743 l -22 743 l -22 757 m 125 13 l 125 626 l 28 626 l 28 639 l 319 639 l 319 13 l 417 13 l 417 0 l 28 0 l 28 13 "},"Ŝ":{"ha":829,"x_min":0,"x_max":0,"o":"m 203 1111 l 196 1118 l 363 1306 l 481 1306 l 647 1118 l 640 1111 l 421 1208 m 58 -14 l 58 313 l 72 313 b 418 -6 124 157 222 -6 b 633 197 551 -6 633 76 b 72 778 633 461 72 375 b 381 1056 72 951 219 1056 b 590 975 465 1056 535 1028 l 708 1056 l 719 1056 l 719 743 l 706 743 b 392 1039 650 926 544 1039 b 219 876 279 1039 219 972 b 775 299 219 640 775 699 b 428 -21 775 104 624 -21 b 192 74 325 -21 250 17 l 69 -14 "},"ŕ":{"ha":656,"x_min":0,"x_max":0,"o":"m 132 778 l 128 792 l 438 900 b 542 826 492 919 542 874 b 451 750 542 779 499 744 m 117 13 l 117 626 l 24 626 l 24 639 l 311 639 l 311 461 b 492 653 329 569 375 653 b 647 506 569 653 647 594 b 532 386 647 442 606 386 b 415 497 465 386 415 428 b 603 569 415 594 539 639 b 489 639 586 614 535 639 b 311 310 333 639 311 458 l 311 13 l 404 13 l 404 0 l 24 0 l 24 13 "},"Ĩ":{"ha":579,"x_min":0,"x_max":0,"o":"m 156 1249 b 71 1167 108 1249 71 1218 l 58 1167 b 196 1371 58 1285 107 1371 b 444 1261 307 1371 356 1261 b 529 1343 496 1261 529 1292 l 542 1343 b 418 1139 542 1211 521 1139 b 156 1249 311 1139 254 1249 m 178 13 l 178 1029 l 25 1029 l 25 1042 l 558 1042 l 558 1029 l 392 1029 l 392 13 l 558 13 l 558 0 l 25 0 l 25 13 "},"ļ":{"ha":482,"x_min":0,"x_max":0,"o":"m 144 13 l 144 1029 l 24 1029 l 24 1042 l 339 1042 l 339 13 l 460 13 l 460 0 l 24 0 l 24 13 m 117 -207 b 251 -83 117 -140 178 -83 b 390 -269 326 -83 390 -147 b 114 -531 390 -408 281 -531 l 114 -517 b 372 -219 267 -517 396 -406 b 239 -331 357 -279 306 -331 b 117 -207 164 -331 117 -274 "},"ž":{"ha":657,"x_min":0,"x_max":0,"o":"m 560 931 l 567 924 l 400 736 l 282 736 l 115 924 l 122 931 l 340 833 m 282 626 b 68 400 151 626 89 540 l 56 400 l 56 639 l 613 639 l 613 626 l 236 13 l 376 13 b 622 256 539 13 601 83 l 635 256 l 635 0 l 17 0 l 17 13 l 392 626 l 282 626 "},"ń":{"ha":850,"x_min":0,"x_max":0,"o":"m 290 750 l 286 764 l 596 872 b 700 799 650 892 700 846 b 610 722 700 751 657 717 m 117 13 l 117 626 l 24 626 l 24 639 l 311 639 l 311 431 b 538 653 331 544 388 653 b 735 443 690 653 735 564 l 735 13 l 828 13 l 828 0 l 468 0 l 468 13 l 540 13 l 540 436 b 467 606 540 553 525 606 b 311 310 350 606 311 442 l 311 13 l 383 13 l 383 0 l 24 0 l 24 13 "},"Ĝ":{"ha":1051,"x_min":0,"x_max":0,"o":"m 361 1146 l 354 1153 l 521 1340 l 639 1340 l 806 1153 l 799 1146 l 579 1243 m 1039 403 l 1039 389 l 969 389 l 969 215 b 553 -14 879 121 779 -14 b 58 521 243 -14 58 197 b 572 1056 58 844 290 1056 b 792 976 653 1056 729 1025 l 925 1042 l 933 1042 l 933 736 l 922 736 b 592 1036 892 883 756 1036 b 303 521 385 1036 303 774 b 553 1 303 268 353 1 b 739 174 669 1 718 115 l 739 389 l 594 389 l 594 403 "},"đ":{"ha":865,"x_min":0,"x_max":0,"o":"m 843 0 l 556 0 l 556 203 b 339 -14 531 64 456 -14 b 44 319 188 -14 44 111 b 339 651 44 528 188 651 b 556 436 456 651 531 575 l 556 785 l 426 785 l 426 799 l 556 799 l 556 1029 l 463 1029 l 463 1042 l 750 1042 l 750 799 l 851 799 l 851 785 l 750 785 l 750 13 l 843 13 m 556 319 b 385 625 556 528 467 625 b 267 319 303 625 267 522 b 388 17 267 117 306 17 b 556 319 469 17 556 111 "},"Ł":{"ha":854,"x_min":0,"x_max":0,"o":"m 150 572 l 150 1029 l 25 1029 l 25 1042 l 489 1042 l 489 1029 l 364 1029 l 364 692 l 569 806 l 569 790 l 364 676 l 364 13 l 507 13 b 814 313 711 13 793 136 l 826 313 l 826 0 l 25 0 l 25 13 l 150 13 l 150 557 l 21 485 l 21 500 "},"—":{"ha":735,"x_min":0,"x_max":0,"o":"m 651 389 l 651 375 l 82 375 l 82 389 "},"ż":{"ha":657,"x_min":0,"x_max":0,"o":"m 240 842 b 347 949 240 901 288 949 b 453 842 406 949 453 901 b 347 736 453 783 406 736 b 240 842 288 736 240 783 m 282 626 b 68 400 151 626 89 540 l 56 400 l 56 639 l 613 639 l 613 626 l 236 13 l 376 13 b 622 256 539 13 601 83 l 635 256 l 635 0 l 17 0 l 17 13 l 392 626 l 282 626 "},"š":{"ha":615,"x_min":0,"x_max":0,"o":"m 540 931 l 547 924 l 381 736 l 263 736 l 96 924 l 103 931 l 321 833 m 53 -14 l 53 201 l 67 201 b 319 0 106 82 200 0 b 475 106 404 0 475 35 b 68 451 475 253 68 179 b 283 651 68 561 151 651 b 443 593 349 651 403 628 l 522 653 l 531 653 l 531 458 l 519 458 b 283 638 489 542 408 638 b 158 546 217 638 158 604 b 579 204 158 407 579 465 b 328 -14 579 60 456 -14 b 143 54 254 -14 192 11 l 64 -14 "},"Ŀ":{"ha":854,"x_min":0,"x_max":0,"o":"m 25 0 l 25 13 l 150 13 l 150 1029 l 25 1029 l 25 1042 l 489 1042 l 489 1029 l 364 1029 l 364 13 l 507 13 b 814 313 711 13 793 136 l 826 313 l 826 0 m 483 722 b 608 847 483 792 539 847 b 733 722 678 847 733 792 b 608 597 733 653 678 597 b 483 722 539 597 483 653 "},"Ş":{"ha":829,"x_min":0,"x_max":0,"o":"m 58 -14 l 58 313 l 72 313 b 418 -6 124 157 222 -6 b 633 197 551 -6 633 76 b 72 778 633 461 72 375 b 381 1056 72 951 219 1056 b 590 975 465 1056 535 1028 l 708 1056 l 719 1056 l 719 743 l 706 743 b 392 1039 650 926 544 1039 b 219 876 279 1039 219 972 b 775 299 219 640 775 699 b 428 -21 775 104 624 -21 b 406 -21 421 -21 413 -21 l 328 -124 b 550 -236 457 -128 550 -158 b 274 -367 550 -306 483 -367 l 274 -356 b 396 -264 356 -356 396 -315 b 268 -179 396 -190 338 -179 l 389 -19 b 192 74 306 -11 242 24 l 69 -14 "},"ĝ":{"ha":857,"x_min":0,"x_max":0,"o":"m 192 743 l 185 750 l 351 938 l 469 938 l 636 750 l 629 743 l 410 840 m 68 94 b 269 231 68 179 167 218 b 58 438 160 249 58 313 b 342 653 58 590 208 653 b 565 578 422 653 510 629 b 708 646 606 628 661 646 b 842 531 800 646 842 583 b 753 429 842 454 794 429 b 667 517 711 429 667 457 b 750 599 667 563 700 599 b 817 564 781 599 810 582 b 708 633 807 600 771 633 b 575 568 664 633 613 617 b 625 438 606 535 625 492 b 342 225 625 285 475 225 b 303 226 329 225 317 225 b 190 160 249 218 190 197 b 332 117 190 118 256 117 b 451 118 381 117 413 118 b 683 -114 556 118 683 75 b 357 -361 683 -282 544 -361 b 24 -185 193 -361 24 -312 b 207 -37 24 -79 136 -44 b 68 94 128 -21 68 18 m 260 438 b 342 238 260 321 267 238 b 424 438 396 238 424 321 b 342 640 424 554 396 640 b 260 438 288 640 260 554 m 190 -150 b 369 -346 190 -258 250 -346 b 631 -172 494 -346 631 -297 b 454 -47 631 -89 544 -47 l 310 -47 b 236 -43 285 -47 260 -46 b 190 -150 196 -71 190 -122 "},"Ź":{"ha":857,"x_min":0,"x_max":0,"o":"m 249 1153 l 244 1167 l 554 1275 b 658 1201 608 1294 658 1249 b 568 1125 658 1154 615 1119 m 794 1042 l 794 1029 l 261 13 l 517 13 b 797 285 707 13 769 108 l 808 285 l 808 0 l 17 0 l 17 13 l 553 1029 l 336 1029 b 58 785 146 1029 86 933 l 44 785 l 44 1042 "},"ě":{"ha":726,"x_min":0,"x_max":0,"o":"m 607 931 l 614 924 l 447 736 l 329 736 l 163 924 l 169 931 l 388 833 m 688 199 b 386 -14 651 78 554 -14 b 44 319 190 -14 44 104 b 381 653 44 535 185 653 b 686 356 588 653 686 507 l 260 356 b 260 333 260 349 260 340 b 421 6 260 154 290 6 b 675 199 547 6 640 88 l 688 199 m 381 640 b 260 369 292 640 264 514 l 481 369 b 381 640 481 486 469 640 "},"ķ":{"ha":876,"x_min":0,"x_max":0,"o":"m 144 13 l 144 1029 l 24 1029 l 24 1042 l 339 1042 l 339 397 l 660 626 l 499 626 l 499 639 l 800 639 l 800 626 l 681 626 l 458 461 l 806 13 l 868 13 l 868 0 l 481 0 l 481 13 l 565 13 l 339 317 l 339 13 l 415 13 l 415 0 l 24 0 l 24 13 m 319 -207 b 454 -83 319 -140 381 -83 b 593 -269 529 -83 593 -147 b 317 -531 593 -408 483 -531 l 317 -517 b 575 -219 469 -517 599 -406 b 442 -331 560 -279 508 -331 b 319 -207 367 -331 319 -274 "},"Ŭ":{"ha":1003,"x_min":0,"x_max":0,"o":"m 349 1374 b 503 1285 349 1310 428 1285 b 657 1374 578 1285 657 1310 l 669 1374 b 503 1153 669 1240 621 1153 b 336 1374 385 1153 336 1240 l 349 1374 m 503 1042 l 503 1029 l 364 1029 l 364 333 b 578 3 364 150 399 3 b 836 319 732 3 836 99 l 836 1029 l 711 1029 l 711 1042 l 983 1042 l 983 1029 l 850 1029 l 850 319 b 525 -21 850 90 751 -21 b 150 319 264 -21 150 79 l 150 1029 l 25 1029 l 25 1042 "},"‑":{"ha":399,"x_min":0,"x_max":0,"o":"m 315 389 l 315 375 l 83 375 l 83 389 "},"ā":{"ha":804,"x_min":0,"x_max":0,"o":"m 582 757 l 582 743 l 190 743 l 190 757 m 456 356 l 456 424 b 325 633 456 531 429 633 b 178 588 258 633 201 610 b 324 504 254 613 324 569 b 207 404 324 442 263 404 b 100 501 144 404 100 444 b 361 650 100 590 221 650 b 650 424 590 650 650 550 l 650 72 b 700 21 650 42 667 21 b 793 92 724 21 765 38 l 803 88 b 618 -14 771 18 699 -14 b 456 108 532 -14 456 15 l 456 153 b 239 -14 431 44 361 -14 b 51 157 129 -14 51 54 b 356 356 51 274 154 356 m 340 50 b 456 251 396 50 456 99 l 456 342 l 404 342 b 263 176 319 342 263 267 b 340 50 263 99 289 50 "},"ę":{"ha":726,"x_min":0,"x_max":0,"o":"m 578 -221 b 406 -322 557 -260 525 -322 b 233 -203 314 -322 233 -286 b 410 -14 233 -114 321 -50 b 386 -14 403 -14 394 -14 b 44 319 190 -14 44 104 b 381 653 44 535 185 653 b 686 356 588 653 686 507 l 260 356 b 260 333 260 349 260 340 b 421 6 260 154 290 6 b 675 199 547 6 640 88 l 688 199 b 469 -6 658 100 588 19 b 419 -162 444 -28 419 -85 b 486 -283 419 -239 446 -283 b 569 -217 525 -283 550 -253 l 578 -221 m 381 640 b 260 369 292 640 264 514 l 481 369 b 381 640 481 486 469 640 "},"ă":{"ha":804,"x_min":0,"x_max":0,"o":"m 228 971 b 382 882 228 907 307 882 b 536 971 457 882 536 907 l 549 971 b 382 750 549 838 500 750 b 215 971 264 750 215 838 l 228 971 m 456 356 l 456 424 b 325 633 456 531 429 633 b 178 588 258 633 201 610 b 324 504 254 613 324 569 b 207 404 324 442 263 404 b 100 501 144 404 100 444 b 361 650 100 590 221 650 b 650 424 590 650 650 550 l 650 72 b 700 21 650 42 667 21 b 793 92 724 21 765 38 l 803 88 b 618 -14 771 18 699 -14 b 456 108 532 -14 456 15 l 456 153 b 239 -14 431 44 361 -14 b 51 157 129 -14 51 54 b 356 356 51 274 154 356 m 340 50 b 456 251 396 50 456 99 l 456 342 l 404 342 b 263 176 319 342 263 267 b 340 50 263 99 289 50 "},"Ŏ":{"ha":1058,"x_min":0,"x_max":0,"o":"m 385 1360 b 539 1271 385 1296 464 1271 b 693 1360 614 1271 693 1296 l 706 1360 b 539 1139 706 1226 657 1139 b 372 1360 421 1139 372 1226 l 385 1360 m 531 -14 b 58 521 235 -14 58 218 b 531 1056 58 824 249 1056 b 1003 521 813 1056 1003 824 b 531 -14 1003 218 826 -14 m 531 1044 b 303 521 351 1044 303 808 b 531 -3 303 233 338 -3 b 761 521 724 -3 761 233 b 531 1044 761 808 710 1044 "},"Ŗ":{"ha":1031,"x_min":0,"x_max":0,"o":"m 164 13 l 164 1029 l 25 1029 l 25 1042 l 511 1042 b 900 785 742 1042 900 965 b 589 535 900 624 786 550 b 939 11 1040 532 768 11 b 1014 29 968 11 994 21 l 1017 17 b 850 -11 994 4 931 -11 b 475 528 471 -11 817 528 l 378 528 l 378 13 l 517 13 l 517 0 l 25 0 l 25 13 m 378 1029 l 378 542 l 475 542 b 678 785 608 542 678 619 b 475 1029 678 950 608 1029 m 458 -196 b 593 -72 458 -129 519 -72 b 732 -258 668 -72 732 -136 b 456 -519 732 -397 622 -519 l 456 -506 b 714 -208 608 -506 738 -394 b 581 -319 699 -268 647 -319 b 458 -196 506 -319 458 -262 "},"Ě":{"ha":871,"x_min":0,"x_max":0,"o":"m 646 1333 l 653 1326 l 486 1139 l 368 1139 l 201 1326 l 208 1333 l 426 1236 m 589 365 b 414 532 568 458 493 532 l 364 532 l 364 13 l 511 13 b 817 313 701 13 796 136 l 831 313 l 831 0 l 25 0 l 25 13 l 150 13 l 150 1029 l 25 1029 l 25 1042 l 817 1042 l 817 757 l 803 757 b 525 1029 782 906 688 1029 l 364 1029 l 364 546 l 414 546 b 589 706 493 546 568 613 l 600 706 l 600 365 l 589 365 "},"Ž":{"ha":857,"x_min":0,"x_max":0,"o":"m 646 1333 l 653 1326 l 486 1139 l 368 1139 l 201 1326 l 208 1333 l 426 1236 m 794 1042 l 794 1029 l 261 13 l 517 13 b 797 285 707 13 769 108 l 808 285 l 808 0 l 17 0 l 17 13 l 553 1029 l 336 1029 b 58 785 146 1029 86 933 l 44 785 l 44 1042 "},"":{"ha":889,"x_min":0,"x_max":0,"o":"m 117 785 b 438 1106 117 963 260 1106 b 758 785 615 1106 758 963 b 438 464 758 607 615 464 b 117 785 260 464 117 607 m 124 785 b 438 471 124 613 265 471 b 751 785 610 471 751 613 b 438 1099 751 957 610 1099 b 124 785 265 1099 124 957 m 319 600 l 319 967 l 269 967 l 269 971 l 444 971 b 585 878 528 971 585 943 b 472 788 585 821 543 793 b 599 600 636 788 538 600 b 626 606 610 600 619 603 l 626 601 b 567 592 619 597 596 592 b 432 786 431 592 554 786 l 397 786 l 397 600 l 447 600 l 447 596 l 269 596 l 269 600 m 397 967 l 397 790 l 432 790 b 504 878 479 790 504 818 b 432 967 504 938 479 967 "},"˘":{"ha":417,"x_min":0,"x_max":0,"o":"m 54 1054 b 208 965 54 990 133 965 b 363 1054 283 965 363 990 l 375 1054 b 208 833 375 921 326 833 b 42 1054 90 833 42 921 l 54 1054 "},"”":{"ha":729,"x_min":0,"x_max":0,"o":"m 56 946 b 190 1069 56 1013 117 1069 b 329 883 265 1069 329 1006 b 53 622 329 744 219 622 l 53 636 b 311 933 206 636 335 747 b 178 822 296 874 244 822 b 56 946 103 822 56 879 m 403 946 b 538 1069 403 1013 464 1069 b 676 883 613 1069 676 1006 b 400 622 676 744 567 622 l 400 636 b 658 933 553 636 682 747 b 525 822 643 874 592 822 b 403 946 450 822 403 879 "},"―":{"ha":794,"x_min":0,"x_max":0,"o":"m 711 389 l 711 375 l 83 375 l 83 389 "},"Ŕ":{"ha":1031,"x_min":0,"x_max":0,"o":"m 289 1181 l 285 1194 l 594 1303 b 699 1229 649 1322 699 1276 b 608 1153 699 1182 656 1147 m 164 13 l 164 1029 l 25 1029 l 25 1042 l 511 1042 b 900 785 742 1042 900 965 b 589 535 900 624 786 550 b 939 11 1040 532 768 11 b 1014 29 968 11 994 21 l 1017 17 b 850 -11 994 4 931 -11 b 475 528 471 -11 817 528 l 378 528 l 378 13 l 517 13 l 517 0 l 25 0 l 25 13 m 378 1029 l 378 542 l 475 542 b 678 785 608 542 678 619 b 475 1029 678 950 608 1029 "},"Ō":{"ha":1058,"x_min":0,"x_max":0,"o":"m 719 1156 l 719 1142 l 328 1142 l 328 1156 m 531 -14 b 58 521 235 -14 58 218 b 531 1056 58 824 249 1056 b 1003 521 813 1056 1003 824 b 531 -14 1003 218 826 -14 m 531 1044 b 303 521 351 1044 303 808 b 531 -3 303 233 338 -3 b 761 521 724 -3 761 233 b 531 1044 761 808 710 1044 "},"ġ":{"ha":857,"x_min":0,"x_max":0,"o":"m 307 867 b 414 974 307 926 354 974 b 519 867 472 974 519 926 b 414 761 519 808 472 761 b 307 867 354 761 307 808 m 68 94 b 269 231 68 179 167 218 b 58 438 160 249 58 313 b 342 653 58 590 208 653 b 565 578 422 653 510 629 b 708 646 606 628 661 646 b 842 531 800 646 842 583 b 753 429 842 454 794 429 b 667 517 711 429 667 457 b 750 599 667 563 700 599 b 817 564 781 599 810 582 b 708 633 807 600 771 633 b 575 568 664 633 613 617 b 625 438 606 535 625 492 b 342 225 625 285 475 225 b 303 226 329 225 317 225 b 190 160 249 218 190 197 b 332 117 190 118 256 117 b 451 118 381 117 413 118 b 683 -114 556 118 683 75 b 357 -361 683 -282 544 -361 b 24 -185 193 -361 24 -312 b 207 -37 24 -79 136 -44 b 68 94 128 -21 68 18 m 260 438 b 342 238 260 321 267 238 b 424 438 396 238 424 321 b 342 640 424 554 396 640 b 260 438 288 640 260 554 m 190 -150 b 369 -346 190 -258 250 -346 b 631 -172 494 -346 631 -297 b 454 -47 631 -89 544 -47 l 310 -47 b 236 -43 285 -47 260 -46 b 190 -150 196 -71 190 -122 "},"Ģ":{"ha":1051,"x_min":0,"x_max":0,"o":"m 1039 403 l 1039 389 l 969 389 l 969 215 b 553 -14 879 121 779 -14 b 58 521 243 -14 58 197 b 572 1056 58 844 290 1056 b 792 976 653 1056 729 1025 l 925 1042 l 933 1042 l 933 736 l 922 736 b 592 1036 892 883 756 1036 b 303 521 385 1036 303 774 b 553 1 303 268 353 1 b 739 174 669 1 718 115 l 739 389 l 594 389 l 594 403 m 425 -221 b 560 -97 425 -154 486 -97 b 699 -283 635 -97 699 -161 b 422 -544 699 -422 589 -544 l 422 -531 b 681 -233 575 -531 704 -419 b 547 -344 665 -293 614 -344 b 425 -221 472 -344 425 -287 "},"Ŵ":{"ha":1531,"x_min":0,"x_max":0,"o":"m 556 1146 l 549 1153 l 715 1340 l 833 1340 l 1000 1153 l 993 1146 l 774 1243 m 1057 1029 l 926 679 l 1083 239 l 1376 1029 l 1239 1029 l 1239 1042 l 1517 1042 l 1517 1029 l 1390 1029 l 1006 -14 l 956 -14 l 771 494 l 581 -14 l 511 -14 l 132 1029 l 17 1029 l 17 1042 l 1178 1042 l 1178 1029 m 763 517 l 576 1029 l 376 1029 l 658 239 m 918 700 l 1042 1029 l 800 1029 "},"Ř":{"ha":1031,"x_min":0,"x_max":0,"o":"m 715 1299 l 722 1292 l 556 1104 l 438 1104 l 271 1292 l 278 1299 l 496 1201 m 164 13 l 164 1029 l 25 1029 l 25 1042 l 511 1042 b 900 785 742 1042 900 965 b 589 535 900 624 786 550 b 939 11 1040 532 768 11 b 1014 29 968 11 994 21 l 1017 17 b 850 -11 994 4 931 -11 b 475 528 471 -11 817 528 l 378 528 l 378 13 l 517 13 l 517 0 l 25 0 l 25 13 m 378 1029 l 378 542 l 475 542 b 678 785 608 542 678 619 b 475 1029 678 950 608 1029 "},"ș":{"ha":615,"x_min":0,"x_max":0,"o":"m 53 -14 l 53 201 l 67 201 b 319 0 106 82 200 0 b 475 106 404 0 475 35 b 68 451 475 253 68 179 b 283 651 68 561 151 651 b 443 593 349 651 403 628 l 522 653 l 531 653 l 531 458 l 519 458 b 283 638 489 542 408 638 b 158 546 217 638 158 604 b 579 204 158 407 579 465 b 328 -14 579 60 456 -14 b 143 54 254 -14 192 11 l 64 -14 m 186 -186 b 321 -62 186 -119 247 -62 b 460 -249 396 -62 460 -126 b 183 -510 460 -387 350 -510 l 183 -496 b 442 -199 336 -496 465 -385 b 308 -310 426 -258 375 -310 b 186 -186 233 -310 186 -253 "},"ė":{"ha":726,"x_min":0,"x_max":0,"o":"m 288 842 b 394 949 288 901 335 949 b 500 842 453 949 500 901 b 394 736 500 783 453 736 b 288 842 335 736 288 783 m 688 199 b 386 -14 651 78 554 -14 b 44 319 190 -14 44 104 b 381 653 44 535 185 653 b 686 356 588 653 686 507 l 260 356 b 260 333 260 349 260 340 b 421 6 260 154 290 6 b 675 199 547 6 640 88 l 688 199 m 381 640 b 260 369 292 640 264 514 l 481 369 b 381 640 481 486 469 640 "},"‰":{"ha":2097,"x_min":0,"x_max":0,"o":"m 49 750 b 354 1056 49 949 197 1056 b 660 750 511 1056 660 949 b 354 444 660 551 483 444 b 49 750 197 444 49 551 m 264 750 b 354 457 264 565 286 457 b 444 750 422 457 444 565 b 354 1043 444 935 422 1043 b 264 750 286 1043 264 935 m 1076 1042 l 356 0 l 340 0 l 1061 1042 m 1438 292 b 1743 597 1438 490 1586 597 b 2049 292 1900 597 2049 490 b 1743 -14 2049 93 1872 -14 b 1438 292 1586 -14 1438 93 m 757 292 b 1063 597 757 490 906 597 b 1368 292 1219 597 1368 490 b 1063 -14 1368 93 1192 -14 b 757 292 906 -14 757 93 m 1653 292 b 1743 -1 1653 107 1675 -1 b 1833 292 1811 -1 1833 107 b 1743 585 1833 476 1811 585 b 1653 292 1675 585 1653 476 m 972 292 b 1063 -1 972 107 994 -1 b 1153 292 1131 -1 1153 107 b 1063 585 1153 476 1131 585 b 972 292 994 585 972 476 "},"ŷ":{"ha":817,"x_min":0,"x_max":0,"o":"m 213 743 l 206 750 l 372 938 l 490 938 l 657 750 l 650 743 l 431 840 m 418 -28 l 82 626 l -8 626 l -8 639 l 444 639 l 444 626 l 313 626 l 525 203 l 721 626 l 583 626 l 583 639 l 833 639 l 833 626 l 739 626 l 324 -267 b 203 -358 297 -322 263 -358 b 94 -254 147 -358 94 -321 b 206 -144 94 -194 140 -144 b 313 -257 265 -144 314 -194 "},"Ň":{"ha":1043,"x_min":0,"x_max":0,"o":"m 761 1299 l 768 1292 l 601 1104 l 483 1104 l 317 1292 l 324 1299 l 542 1201 m 164 13 l 164 1029 l 25 1029 l 25 1042 l 419 1042 l 864 356 l 864 1029 l 706 1029 l 706 1042 l 1022 1042 l 1022 1029 l 878 1029 l 878 -14 l 856 -14 l 178 1021 l 178 13 l 339 13 l 339 0 l 25 0 l 25 13 "},"Š":{"ha":829,"x_min":0,"x_max":0,"o":"m 633 1333 l 640 1326 l 474 1139 l 356 1139 l 189 1326 l 196 1333 l 414 1236 m 58 -14 l 58 313 l 72 313 b 418 -6 124 157 222 -6 b 633 197 551 -6 633 76 b 72 778 633 461 72 375 b 381 1056 72 951 219 1056 b 590 975 465 1056 535 1028 l 708 1056 l 719 1056 l 719 743 l 706 743 b 392 1039 650 926 544 1039 b 219 876 279 1039 219 972 b 775 299 219 640 775 699 b 428 -21 775 104 624 -21 b 192 74 325 -21 250 17 l 69 -14 "}}}
